<?xml version="1.0" encoding="utf-8" standalone="no"?>
<!DOCTYPE svg PUBLIC "-//W3C//DTD SVG 1.1//EN"
  "http://www.w3.org/Graphics/SVG/1.1/DTD/svg11.dtd">
<svg xmlns:xlink="http://www.w3.org/1999/xlink" width="753.793625pt" height="136.041562pt" viewBox="0 0 753.793625 136.041562" xmlns="http://www.w3.org/2000/svg" version="1.1">
 <metadata>
  <rdf:RDF xmlns:dc="http://purl.org/dc/elements/1.1/" xmlns:cc="http://creativecommons.org/ns#" xmlns:rdf="http://www.w3.org/1999/02/22-rdf-syntax-ns#">
   <cc:Work>
    <dc:type rdf:resource="http://purl.org/dc/dcmitype/StillImage"/>
    <dc:date>2026-04-27T16:10:53.919863</dc:date>
    <dc:format>image/svg+xml</dc:format>
    <dc:creator>
     <cc:Agent>
      <dc:title>Matplotlib v3.10.8, https://matplotlib.org/</dc:title>
     </cc:Agent>
    </dc:creator>
   </cc:Work>
  </rdf:RDF>
 </metadata>
 <defs>
  <style type="text/css">*{stroke-linejoin: round; stroke-linecap: butt}</style>
 </defs>
 <g id="figure_1">
  <g id="patch_1">
   <path d="M 0 136.041562 
L 753.793625 136.041562 
L 753.793625 0 
L 0 0 
z
" style="fill: #ffffff"/>
  </g>
  <g id="axes_1">
   <g id="patch_2">
    <path d="M 40.603125 125.341562 
L 109.622125 125.341562 
L 109.622125 59.937562 
L 40.603125 59.937562 
z
" style="fill: #ffffff"/>
   </g>
   <g id="FillBetweenPolyCollection_1">
    <path d="M 75.156618 122.368653 
L 75.068632 122.368653 
L 75.030746 121.768066 
L 74.970774 121.167478 
L 74.88112 120.56689 
L 74.750654 119.966303 
L 74.559333 119.365715 
L 74.270518 118.765127 
L 73.824938 118.16454 
L 73.142789 117.563952 
L 72.139526 116.963364 
L 70.754817 116.362776 
L 68.984854 115.762189 
L 66.901387 115.161601 
L 64.642907 114.561013 
L 62.376223 113.960426 
L 60.24382 113.359838 
L 58.322441 112.75925 
L 56.613093 112.158663 
L 55.064925 111.558075 
L 53.617352 110.957487 
L 52.23789 110.3569 
L 50.939545 109.756312 
L 49.774249 109.155724 
L 48.809424 108.555136 
L 48.100096 107.954549 
L 47.66925 107.353961 
L 47.505025 106.753373 
L 47.575071 106.152786 
L 47.848843 105.552198 
L 48.313698 104.95161 
L 48.974807 104.351023 
L 49.839936 103.750435 
L 50.900247 103.149847 
L 52.11986 102.549259 
L 53.439642 101.948672 
L 54.790785 101.348084 
L 56.108758 100.747496 
L 57.340854 100.146909 
L 58.447205 99.546321 
L 59.400004 98.945733 
L 60.185434 98.345146 
L 60.808739 97.744558 
L 61.298786 97.14397 
L 61.70742 96.543383 
L 62.10103 95.942795 
L 62.54553 95.342207 
L 63.089193 94.741619 
L 63.749128 94.141032 
L 64.506304 93.540444 
L 65.311507 92.939856 
L 66.101084 92.339269 
L 66.817752 91.738681 
L 67.429158 91.138093 
L 67.936971 90.537506 
L 68.372919 89.936918 
L 68.78416 89.33633 
L 69.215122 88.735742 
L 69.693399 88.135155 
L 70.223785 87.534567 
L 70.790079 86.933979 
L 71.36202 86.333392 
L 71.904692 85.732804 
L 72.388256 85.132216 
L 72.79572 84.531629 
L 73.12631 83.931041 
L 73.393166 83.330453 
L 73.61642 82.729866 
L 73.81483 82.129278 
L 73.999558 81.52869 
L 74.17219 80.928102 
L 74.326963 80.327515 
L 74.455498 79.726927 
L 74.551732 79.126339 
L 74.615124 78.525752 
L 74.651175 77.925164 
L 74.669494 77.324576 
L 74.68056 76.723989 
L 74.692639 76.123401 
L 74.709953 75.522813 
L 74.73251 74.922225 
L 74.757387 74.321638 
L 74.780844 73.72105 
L 74.800406 73.120462 
L 74.815986 72.519875 
L 74.829464 71.919287 
L 74.842974 71.318699 
L 74.85706 70.718112 
L 74.870085 70.117524 
L 74.879505 69.516936 
L 74.88419 68.916349 
L 74.886089 68.315761 
L 74.889913 67.715173 
L 74.900895 67.114585 
L 74.922032 66.513998 
L 74.952536 65.91341 
L 74.988283 65.312822 
L 75.023788 64.712235 
L 75.054414 64.111647 
L 75.077701 63.511059 
L 75.093458 62.910472 
L 75.131792 62.910472 
L 75.131792 62.910472 
L 75.147549 63.511059 
L 75.170836 64.111647 
L 75.201462 64.712235 
L 75.236967 65.312822 
L 75.272714 65.91341 
L 75.303218 66.513998 
L 75.324355 67.114585 
L 75.335337 67.715173 
L 75.339161 68.315761 
L 75.34106 68.916349 
L 75.345745 69.516936 
L 75.355165 70.117524 
L 75.36819 70.718112 
L 75.382276 71.318699 
L 75.395786 71.919287 
L 75.409264 72.519875 
L 75.424844 73.120462 
L 75.444406 73.72105 
L 75.467863 74.321638 
L 75.49274 74.922225 
L 75.515297 75.522813 
L 75.532611 76.123401 
L 75.54469 76.723989 
L 75.555756 77.324576 
L 75.574075 77.925164 
L 75.610126 78.525752 
L 75.673518 79.126339 
L 75.769752 79.726927 
L 75.898287 80.327515 
L 76.05306 80.928102 
L 76.225692 81.52869 
L 76.41042 82.129278 
L 76.60883 82.729866 
L 76.832084 83.330453 
L 77.09894 83.931041 
L 77.42953 84.531629 
L 77.836994 85.132216 
L 78.320558 85.732804 
L 78.86323 86.333392 
L 79.435171 86.933979 
L 80.001465 87.534567 
L 80.531851 88.135155 
L 81.010128 88.735742 
L 81.44109 89.33633 
L 81.852331 89.936918 
L 82.288279 90.537506 
L 82.796092 91.138093 
L 83.407498 91.738681 
L 84.124166 92.339269 
L 84.913743 92.939856 
L 85.718946 93.540444 
L 86.476122 94.141032 
L 87.136057 94.741619 
L 87.67972 95.342207 
L 88.12422 95.942795 
L 88.51783 96.543383 
L 88.926464 97.14397 
L 89.416511 97.744558 
L 90.039816 98.345146 
L 90.825246 98.945733 
L 91.778045 99.546321 
L 92.884396 100.146909 
L 94.116492 100.747496 
L 95.434465 101.348084 
L 96.785608 101.948672 
L 98.10539 102.549259 
L 99.325003 103.149847 
L 100.385314 103.750435 
L 101.250443 104.351023 
L 101.911552 104.95161 
L 102.376407 105.552198 
L 102.650179 106.152786 
L 102.720225 106.753373 
L 102.556 107.353961 
L 102.125154 107.954549 
L 101.415826 108.555136 
L 100.451001 109.155724 
L 99.285705 109.756312 
L 97.98736 110.3569 
L 96.607898 110.957487 
L 95.160325 111.558075 
L 93.612157 112.158663 
L 91.902809 112.75925 
L 89.98143 113.359838 
L 87.849027 113.960426 
L 85.582343 114.561013 
L 83.323863 115.161601 
L 81.240396 115.762189 
L 79.470433 116.362776 
L 78.085724 116.963364 
L 77.082461 117.563952 
L 76.400312 118.16454 
L 75.954732 118.765127 
L 75.665917 119.365715 
L 75.474596 119.966303 
L 75.34413 120.56689 
L 75.254476 121.167478 
L 75.194504 121.768066 
L 75.156618 122.368653 
L 75.156618 122.368653 
z
" clip-path="url(#p98f691d7c9)" style="fill: none; stroke: #800080; stroke-width: 1.5"/>
   </g>
   <g id="matplotlib.axis_1">
    <g id="xtick_1">
     <g id="line2d_1">
      <defs>
       <path id="m60da5f6476" d="M 0 0 
L 0 3.5 
" style="stroke: #000000; stroke-width: 0.8"/>
      </defs>
      <g>
       <use xlink:href="#m60da5f6476" x="75.112625" y="125.341562" style="stroke: #000000; stroke-width: 0.8"/>
      </g>
     </g>
    </g>
   </g>
   <g id="matplotlib.axis_2">
    <g id="ytick_1">
     <g id="line2d_2">
      <defs>
       <path id="m2b26998804" d="M 0 0 
L -3.5 0 
" style="stroke: #000000; stroke-width: 0.8"/>
      </defs>
      <g>
       <use xlink:href="#m2b26998804" x="40.603125" y="122.28512" style="stroke: #000000; stroke-width: 0.8"/>
      </g>
     </g>
     <g id="text_1">
      <text style="font-size: 10px; font-family: 'DejaVu Sans', 'Bitstream Vera Sans', 'Computer Modern Sans Serif', 'Lucida Grande', 'Verdana', 'Geneva', 'Lucid', 'Arial', 'Helvetica', 'Avant Garde', sans-serif; text-anchor: end" x="33.603125" y="126.084338" transform="rotate(-0 33.603125 126.084338)">0</text>
     </g>
    </g>
    <g id="ytick_2">
     <g id="line2d_3">
      <g>
       <use xlink:href="#m2b26998804" x="40.603125" y="96.525389" style="stroke: #000000; stroke-width: 0.8"/>
      </g>
     </g>
     <g id="text_2">
      <text style="font-size: 10px; font-family: 'DejaVu Sans', 'Bitstream Vera Sans', 'Computer Modern Sans Serif', 'Lucida Grande', 'Verdana', 'Geneva', 'Lucid', 'Arial', 'Helvetica', 'Avant Garde', sans-serif; text-anchor: end" x="33.603125" y="100.324608" transform="rotate(-0 33.603125 100.324608)">5</text>
     </g>
    </g>
    <g id="ytick_3">
     <g id="line2d_4">
      <g>
       <use xlink:href="#m2b26998804" x="40.603125" y="70.765659" style="stroke: #000000; stroke-width: 0.8"/>
      </g>
     </g>
     <g id="text_3">
      <text style="font-size: 10px; font-family: 'DejaVu Sans', 'Bitstream Vera Sans', 'Computer Modern Sans Serif', 'Lucida Grande', 'Verdana', 'Geneva', 'Lucid', 'Arial', 'Helvetica', 'Avant Garde', sans-serif; text-anchor: end" x="33.603125" y="74.564878" transform="rotate(-0 33.603125 74.564878)">10</text>
     </g>
    </g>
    <g id="text_4">
     <text style="font-size: 10px; font-family: 'DejaVu Sans', 'Bitstream Vera Sans', 'Computer Modern Sans Serif', 'Lucida Grande', 'Verdana', 'Geneva', 'Lucid', 'Arial', 'Helvetica', 'Avant Garde', sans-serif; text-anchor: middle" x="14.798438" y="92.639562" transform="rotate(-90 14.798438 92.639562)">% new edges</text>
    </g>
   </g>
   <g id="line2d_5">
    <path d="M 75.112625 118.426337 
L 75.112625 82.78138 
" clip-path="url(#p98f691d7c9)" style="fill: none; stroke: #800080; stroke-width: 2.25; stroke-linecap: square"/>
   </g>
   <g id="line2d_6">
    <path d="M 75.112625 108.773248 
L 75.112625 98.362319 
" clip-path="url(#p98f691d7c9)" style="fill: none; stroke: #800080; stroke-width: 6.75; stroke-linecap: square"/>
   </g>
   <g id="line2d_7">
    <path d="M 75.112625 104.405969 
" clip-path="url(#p98f691d7c9)" style="fill: none; stroke: #800080; stroke-width: 1.5; stroke-linecap: square"/>
    <defs>
     <path id="mc92f5900ad" d="M 2.8125 0 
L -2.8125 -0 
" style="stroke: #ffffff; stroke-width: 1.35"/>
    </defs>
    <g clip-path="url(#p98f691d7c9)">
     <use xlink:href="#mc92f5900ad" x="75.112625" y="104.405969" style="fill: #ffffff; stroke: #ffffff; stroke-width: 1.35"/>
    </g>
   </g>
   <g id="patch_3">
    <path d="M 40.603125 125.341562 
L 40.603125 59.937562 
" style="fill: none; stroke: #000000; stroke-width: 0.8; stroke-linejoin: miter; stroke-linecap: square"/>
   </g>
   <g id="patch_4">
    <path d="M 109.622125 125.341562 
L 109.622125 59.937562 
" style="fill: none; stroke: #000000; stroke-width: 0.8; stroke-linejoin: miter; stroke-linecap: square"/>
   </g>
   <g id="patch_5">
    <path d="M 40.603125 125.341562 
L 109.622125 125.341562 
" style="fill: none; stroke: #000000; stroke-width: 0.8; stroke-linejoin: miter; stroke-linecap: square"/>
   </g>
   <g id="patch_6">
    <path d="M 40.603125 59.937562 
L 109.622125 59.937562 
" style="fill: none; stroke: #000000; stroke-width: 0.8; stroke-linejoin: miter; stroke-linecap: square"/>
   </g>
   <g id="text_5">
    <!-- $\mathbf{d}$ % of edges that -->
    <g transform="translate(21.352625 27.038437)">
     <text>
      <tspan x="0" y="-0.875" style="font-weight: 700; font-size: 12px; font-family: 'DejaVu Sans'">d</tspan>
      <tspan x="8.589844" y="-0.875" style="font-size: 12px; font-family: 'DejaVu Sans'"> </tspan>
      <tspan x="12.404297" y="-0.875" style="font-size: 12px; font-family: 'DejaVu Sans'">%</tspan>
      <tspan x="23.806641" y="-0.875" style="font-size: 12px; font-family: 'DejaVu Sans'"> </tspan>
      <tspan x="27.621094" y="-0.875" style="font-size: 12px; font-family: 'DejaVu Sans'">o</tspan>
      <tspan x="34.962891" y="-0.875" style="font-size: 12px; font-family: 'DejaVu Sans'">f</tspan>
      <tspan x="39.1875" y="-0.875" style="font-size: 12px; font-family: 'DejaVu Sans'"> </tspan>
      <tspan x="43.001953" y="-0.875" style="font-size: 12px; font-family: 'DejaVu Sans'">e</tspan>
      <tspan x="50.384766" y="-0.875" style="font-size: 12px; font-family: 'DejaVu Sans'">d</tspan>
      <tspan x="58.001953" y="-0.875" style="font-size: 12px; font-family: 'DejaVu Sans'">g</tspan>
      <tspan x="65.619141" y="-0.875" style="font-size: 12px; font-family: 'DejaVu Sans'">e</tspan>
      <tspan x="73.001953" y="-0.875" style="font-size: 12px; font-family: 'DejaVu Sans'">s</tspan>
      <tspan x="79.253906" y="-0.875" style="font-size: 12px; font-family: 'DejaVu Sans'"> </tspan>
      <tspan x="83.068359" y="-0.875" style="font-size: 12px; font-family: 'DejaVu Sans'">t</tspan>
      <tspan x="87.773438" y="-0.875" style="font-size: 12px; font-family: 'DejaVu Sans'">h</tspan>
      <tspan x="95.378906" y="-0.875" style="font-size: 12px; font-family: 'DejaVu Sans'">a</tspan>
      <tspan x="102.732422" y="-0.875" style="font-size: 12px; font-family: 'DejaVu Sans'">t</tspan>
     </text>
    </g>
    <text style="font-size: 12px; font-family: 'DejaVu Sans', 'Bitstream Vera Sans', 'Computer Modern Sans Serif', 'Lucida Grande', 'Verdana', 'Geneva', 'Lucid', 'Arial', 'Helvetica', 'Avant Garde', sans-serif" transform="translate(17.078563 40.500187)">were not contained</text>
    <text style="font-size: 12px; font-family: 'DejaVu Sans', 'Bitstream Vera Sans', 'Computer Modern Sans Serif', 'Lucida Grande', 'Verdana', 'Geneva', 'Lucid', 'Arial', 'Helvetica', 'Avant Garde', sans-serif" transform="translate(29.965438 53.937562)">in global graph</text>
   </g>
  </g>
  <g id="axes_2">
   <g id="patch_7">
    <path d="M 189.483375 125.341562 
L 258.502375 125.341562 
L 258.502375 59.937562 
L 189.483375 59.937562 
z
" style="fill: #ffffff"/>
   </g>
   <g id="FillBetweenPolyCollection_2">
    <path d="M 228.632783 122.368653 
L 219.352967 122.368653 
L 196.580926 121.768066 
L 196.385275 121.167478 
L 219.201856 120.56689 
L 223.80452 119.966303 
L 223.984358 119.365715 
L 223.992659 118.765127 
L 223.992874 118.16454 
L 223.992875 117.563952 
L 223.992875 116.963364 
L 223.992875 116.362776 
L 223.992875 115.762189 
L 223.992875 115.161601 
L 223.992875 114.561013 
L 223.992874 113.960426 
L 223.992726 113.359838 
L 223.988004 112.75925 
L 223.965691 112.158663 
L 223.967031 111.558075 
L 223.988689 110.957487 
L 223.99276 110.3569 
L 223.992874 109.756312 
L 223.992875 109.155724 
L 223.992875 108.555136 
L 223.992875 107.954549 
L 223.992875 107.353961 
L 223.992875 106.753373 
L 223.992875 106.152786 
L 223.992875 105.552198 
L 223.992875 104.95161 
L 223.992875 104.351023 
L 223.992875 103.750435 
L 223.992875 103.149847 
L 223.992875 102.549259 
L 223.992875 101.948672 
L 223.992875 101.348084 
L 223.992875 100.747496 
L 223.992875 100.146909 
L 223.992875 99.546321 
L 223.992875 98.945733 
L 223.992875 98.345146 
L 223.992875 97.744558 
L 223.992875 97.14397 
L 223.992875 96.543383 
L 223.992875 95.942795 
L 223.992875 95.342207 
L 223.992875 94.741619 
L 223.992875 94.141032 
L 223.992875 93.540444 
L 223.992875 92.939856 
L 223.992875 92.339269 
L 223.992875 91.738681 
L 223.992875 91.138093 
L 223.992875 90.537506 
L 223.992875 89.936918 
L 223.992875 89.33633 
L 223.992875 88.735742 
L 223.992875 88.135155 
L 223.992875 87.534567 
L 223.992875 86.933979 
L 223.992875 86.333392 
L 223.992875 85.732804 
L 223.992875 85.132216 
L 223.992875 84.531629 
L 223.992875 83.931041 
L 223.992875 83.330453 
L 223.992875 82.729866 
L 223.992875 82.129278 
L 223.992875 81.52869 
L 223.992875 80.928102 
L 223.992875 80.327515 
L 223.992875 79.726927 
L 223.992875 79.126339 
L 223.992875 78.525752 
L 223.992875 77.925164 
L 223.992875 77.324576 
L 223.992875 76.723989 
L 223.992875 76.123401 
L 223.992875 75.522813 
L 223.992875 74.922225 
L 223.992875 74.321638 
L 223.992875 73.72105 
L 223.992875 73.120462 
L 223.992875 72.519875 
L 223.992875 71.919287 
L 223.992875 71.318699 
L 223.992875 70.718112 
L 223.992875 70.117524 
L 223.992875 69.516936 
L 223.992875 68.916349 
L 223.992875 68.315761 
L 223.992875 67.715173 
L 223.992875 67.114585 
L 223.992875 66.513998 
L 223.992874 65.91341 
L 223.992742 65.312822 
L 223.988315 64.712235 
L 223.966271 64.111647 
L 223.96643 63.511059 
L 223.988396 62.910472 
L 223.997354 62.910472 
L 223.997354 62.910472 
L 224.01932 63.511059 
L 224.019479 64.111647 
L 223.997435 64.712235 
L 223.993008 65.312822 
L 223.992876 65.91341 
L 223.992875 66.513998 
L 223.992875 67.114585 
L 223.992875 67.715173 
L 223.992875 68.315761 
L 223.992875 68.916349 
L 223.992875 69.516936 
L 223.992875 70.117524 
L 223.992875 70.718112 
L 223.992875 71.318699 
L 223.992875 71.919287 
L 223.992875 72.519875 
L 223.992875 73.120462 
L 223.992875 73.72105 
L 223.992875 74.321638 
L 223.992875 74.922225 
L 223.992875 75.522813 
L 223.992875 76.123401 
L 223.992875 76.723989 
L 223.992875 77.324576 
L 223.992875 77.925164 
L 223.992875 78.525752 
L 223.992875 79.126339 
L 223.992875 79.726927 
L 223.992875 80.327515 
L 223.992875 80.928102 
L 223.992875 81.52869 
L 223.992875 82.129278 
L 223.992875 82.729866 
L 223.992875 83.330453 
L 223.992875 83.931041 
L 223.992875 84.531629 
L 223.992875 85.132216 
L 223.992875 85.732804 
L 223.992875 86.333392 
L 223.992875 86.933979 
L 223.992875 87.534567 
L 223.992875 88.135155 
L 223.992875 88.735742 
L 223.992875 89.33633 
L 223.992875 89.936918 
L 223.992875 90.537506 
L 223.992875 91.138093 
L 223.992875 91.738681 
L 223.992875 92.339269 
L 223.992875 92.939856 
L 223.992875 93.540444 
L 223.992875 94.141032 
L 223.992875 94.741619 
L 223.992875 95.342207 
L 223.992875 95.942795 
L 223.992875 96.543383 
L 223.992875 97.14397 
L 223.992875 97.744558 
L 223.992875 98.345146 
L 223.992875 98.945733 
L 223.992875 99.546321 
L 223.992875 100.146909 
L 223.992875 100.747496 
L 223.992875 101.348084 
L 223.992875 101.948672 
L 223.992875 102.549259 
L 223.992875 103.149847 
L 223.992875 103.750435 
L 223.992875 104.351023 
L 223.992875 104.95161 
L 223.992875 105.552198 
L 223.992875 106.152786 
L 223.992875 106.753373 
L 223.992875 107.353961 
L 223.992875 107.954549 
L 223.992875 108.555136 
L 223.992875 109.155724 
L 223.992876 109.756312 
L 223.99299 110.3569 
L 223.997061 110.957487 
L 224.018719 111.558075 
L 224.020059 112.158663 
L 223.997746 112.75925 
L 223.993024 113.359838 
L 223.992876 113.960426 
L 223.992875 114.561013 
L 223.992875 115.161601 
L 223.992875 115.762189 
L 223.992875 116.362776 
L 223.992875 116.963364 
L 223.992875 117.563952 
L 223.992876 118.16454 
L 223.993091 118.765127 
L 224.001392 119.365715 
L 224.18123 119.966303 
L 228.783894 120.56689 
L 251.600475 121.167478 
L 251.404824 121.768066 
L 228.632783 122.368653 
L 228.632783 122.368653 
z
" clip-path="url(#p431858609c)" style="fill: none; stroke: #800080; stroke-width: 1.5"/>
   </g>
   <g id="matplotlib.axis_3">
    <g id="xtick_2">
     <g id="line2d_8">
      <g>
       <use xlink:href="#m60da5f6476" x="223.992875" y="125.341562" style="stroke: #000000; stroke-width: 0.8"/>
      </g>
     </g>
    </g>
   </g>
   <g id="matplotlib.axis_4">
    <g id="ytick_4">
     <g id="line2d_9">
      <g>
       <use xlink:href="#m2b26998804" x="189.483375" y="121.465744" style="stroke: #000000; stroke-width: 0.8"/>
      </g>
     </g>
     <g id="text_6">
      <text style="font-size: 10px; font-family: 'DejaVu Sans', 'Bitstream Vera Sans', 'Computer Modern Sans Serif', 'Lucida Grande', 'Verdana', 'Geneva', 'Lucid', 'Arial', 'Helvetica', 'Avant Garde', sans-serif; text-anchor: end" x="182.483375" y="125.264963" transform="rotate(-0 182.483375 125.264963)">0.0</text>
     </g>
    </g>
    <g id="ytick_5">
     <g id="line2d_10">
      <g>
       <use xlink:href="#m2b26998804" x="189.483375" y="91.487981" style="stroke: #000000; stroke-width: 0.8"/>
      </g>
     </g>
     <g id="text_7">
      <text style="font-size: 10px; font-family: 'DejaVu Sans', 'Bitstream Vera Sans', 'Computer Modern Sans Serif', 'Lucida Grande', 'Verdana', 'Geneva', 'Lucid', 'Arial', 'Helvetica', 'Avant Garde', sans-serif; text-anchor: end" x="182.483375" y="95.2872" transform="rotate(-0 182.483375 95.2872)">0.5</text>
     </g>
    </g>
    <g id="ytick_6">
     <g id="line2d_11">
      <g>
       <use xlink:href="#m2b26998804" x="189.483375" y="61.510218" style="stroke: #000000; stroke-width: 0.8"/>
      </g>
     </g>
     <g id="text_8">
      <text style="font-size: 10px; font-family: 'DejaVu Sans', 'Bitstream Vera Sans', 'Computer Modern Sans Serif', 'Lucida Grande', 'Verdana', 'Geneva', 'Lucid', 'Arial', 'Helvetica', 'Avant Garde', sans-serif; text-anchor: end" x="182.483375" y="65.309437" transform="rotate(-0 182.483375 65.309437)">1.0</text>
     </g>
    </g>
    <g id="text_9">
     <text style="font-size: 10px; font-family: 'DejaVu Sans', 'Bitstream Vera Sans', 'Computer Modern Sans Serif', 'Lucida Grande', 'Verdana', 'Geneva', 'Lucid', 'Arial', 'Helvetica', 'Avant Garde', sans-serif; text-anchor: middle" x="160.222438" y="92.639562" transform="rotate(-90 160.222438 92.639562)">P_adj</text>
    </g>
    <g id="text_10">
     <text style="font-size: 10px; font-family: 'DejaVu Sans', 'Bitstream Vera Sans', 'Computer Modern Sans Serif', 'Lucida Grande', 'Verdana', 'Geneva', 'Lucid', 'Arial', 'Helvetica', 'Avant Garde', sans-serif; text-anchor: start" x="189.483375" y="56.937562" transform="rotate(-0 189.483375 56.937562)">1e−6</text>
    </g>
   </g>
   <g id="line2d_12">
    <path d="M 223.992875 121.465744 
L 223.992875 121.465744 
" clip-path="url(#p431858609c)" style="fill: none; stroke: #800080; stroke-width: 2.25; stroke-linecap: square"/>
   </g>
   <g id="line2d_13">
    <path d="M 223.992875 121.465744 
L 223.992875 121.465744 
" clip-path="url(#p431858609c)" style="fill: none; stroke: #800080; stroke-width: 6.75; stroke-linecap: square"/>
   </g>
   <g id="line2d_14">
    <path d="M 223.992875 121.465744 
" clip-path="url(#p431858609c)" style="fill: none; stroke: #800080; stroke-width: 1.5; stroke-linecap: square"/>
    <g clip-path="url(#p431858609c)">
     <use xlink:href="#mc92f5900ad" x="223.992875" y="121.465744" style="fill: #ffffff; stroke: #ffffff; stroke-width: 1.35"/>
    </g>
   </g>
   <g id="patch_8">
    <path d="M 189.483375 125.341562 
L 189.483375 59.937562 
" style="fill: none; stroke: #000000; stroke-width: 0.8; stroke-linejoin: miter; stroke-linecap: square"/>
   </g>
   <g id="patch_9">
    <path d="M 258.502375 125.341562 
L 258.502375 59.937562 
" style="fill: none; stroke: #000000; stroke-width: 0.8; stroke-linejoin: miter; stroke-linecap: square"/>
   </g>
   <g id="patch_10">
    <path d="M 189.483375 125.341562 
L 258.502375 125.341562 
" style="fill: none; stroke: #000000; stroke-width: 0.8; stroke-linejoin: miter; stroke-linecap: square"/>
   </g>
   <g id="patch_11">
    <path d="M 189.483375 59.937562 
L 258.502375 59.937562 
" style="fill: none; stroke: #000000; stroke-width: 0.8; stroke-linejoin: miter; stroke-linecap: square"/>
   </g>
   <g id="text_11">
    <!-- $\mathbf{e}$ Adjusted MWU P-values -->
    <g transform="translate(147.012875 16.44)">
     <text>
      <tspan x="0" y="-0.875" style="font-weight: 700; font-size: 12px; font-family: 'DejaVu Sans'">e</tspan>
      <tspan x="8.138672" y="-0.875" style="font-size: 12px; font-family: 'DejaVu Sans'"> </tspan>
      <tspan x="11.953125" y="-0.875" style="font-size: 12px; font-family: 'DejaVu Sans'">A</tspan>
      <tspan x="20.162109" y="-0.875" style="font-size: 12px; font-family: 'DejaVu Sans'">d</tspan>
      <tspan x="27.779297" y="-0.875" style="font-size: 12px; font-family: 'DejaVu Sans'">j</tspan>
      <tspan x="31.113281" y="-0.875" style="font-size: 12px; font-family: 'DejaVu Sans'">u</tspan>
      <tspan x="38.71875" y="-0.875" style="font-size: 12px; font-family: 'DejaVu Sans'">s</tspan>
      <tspan x="44.970703" y="-0.875" style="font-size: 12px; font-family: 'DejaVu Sans'">t</tspan>
      <tspan x="49.675781" y="-0.875" style="font-size: 12px; font-family: 'DejaVu Sans'">e</tspan>
      <tspan x="57.058594" y="-0.875" style="font-size: 12px; font-family: 'DejaVu Sans'">d</tspan>
      <tspan x="64.675781" y="-0.875" style="font-size: 12px; font-family: 'DejaVu Sans'"> </tspan>
      <tspan x="68.490234" y="-0.875" style="font-size: 12px; font-family: 'DejaVu Sans'">M</tspan>
      <tspan x="78.84375" y="-0.875" style="font-size: 12px; font-family: 'DejaVu Sans'">W</tspan>
      <tspan x="90.708984" y="-0.875" style="font-size: 12px; font-family: 'DejaVu Sans'">U</tspan>
      <tspan x="99.492188" y="-0.875" style="font-size: 12px; font-family: 'DejaVu Sans'"> </tspan>
      <tspan x="103.306641" y="-0.875" style="font-size: 12px; font-family: 'DejaVu Sans'">P</tspan>
      <tspan x="110.542969" y="-0.875" style="font-size: 12px; font-family: 'DejaVu Sans'">-</tspan>
      <tspan x="114.873047" y="-0.875" style="font-size: 12px; font-family: 'DejaVu Sans'">v</tspan>
      <tspan x="121.974609" y="-0.875" style="font-size: 12px; font-family: 'DejaVu Sans'">a</tspan>
      <tspan x="129.328125" y="-0.875" style="font-size: 12px; font-family: 'DejaVu Sans'">l</tspan>
      <tspan x="132.662109" y="-0.875" style="font-size: 12px; font-family: 'DejaVu Sans'">u</tspan>
      <tspan x="140.267578" y="-0.875" style="font-size: 12px; font-family: 'DejaVu Sans'">e</tspan>
      <tspan x="147.650391" y="-0.875" style="font-size: 12px; font-family: 'DejaVu Sans'">s</tspan>
     </text>
    </g>
    <text style="font-size: 12px; font-family: 'DejaVu Sans', 'Bitstream Vera Sans', 'Computer Modern Sans Serif', 'Lucida Grande', 'Verdana', 'Geneva', 'Lucid', 'Arial', 'Helvetica', 'Avant Garde', sans-serif" transform="translate(169.076938 29.90175)">of original vs. new</text>
    <text style="font-size: 12px; font-family: 'DejaVu Sans', 'Bitstream Vera Sans', 'Computer Modern Sans Serif', 'Lucida Grande', 'Verdana', 'Geneva', 'Lucid', 'Arial', 'Helvetica', 'Avant Garde', sans-serif" transform="translate(187.959125 43.339125)">edge length</text>
   </g>
  </g>
  <g id="axes_3">
   <g id="patch_12">
    <path d="M 338.363625 125.341562 
L 407.382625 125.341562 
L 407.382625 59.937562 
L 338.363625 59.937562 
z
" style="fill: #ffffff"/>
   </g>
   <g id="FillBetweenPolyCollection_3">
    <path d="M 354.5199 121.432757 
L 354.416216 121.432757 
L 354.329635 121.064032 
L 354.139751 120.695308 
L 353.775594 120.326584 
L 353.166556 119.95786 
L 352.280907 119.589136 
L 351.164456 119.220412 
L 349.946812 118.851688 
L 348.795163 118.482964 
L 347.835576 118.11424 
L 347.096466 117.745515 
L 346.519431 117.376791 
L 346.030002 117.008067 
L 345.611584 116.639343 
L 345.325326 116.270619 
L 345.265525 115.901895 
L 345.490344 115.533171 
L 345.979388 115.164447 
L 346.640951 114.795722 
L 347.354059 114.426998 
L 348.014045 114.058274 
L 348.559241 113.68955 
L 348.974779 113.320826 
L 349.281852 112.952102 
L 349.522603 112.583378 
L 349.745863 112.214654 
L 349.994158 111.845929 
L 350.292269 111.477205 
L 350.640782 111.108481 
L 351.018736 110.739757 
L 351.395056 110.371033 
L 351.742899 110.002309 
L 352.0497 109.633585 
L 352.31904 109.264861 
L 352.564881 108.896136 
L 352.801999 108.527412 
L 353.03782 108.158688 
L 353.26973 107.789964 
L 353.48817 107.42124 
L 353.682079 107.052516 
L 353.842757 106.683792 
L 353.965 106.315068 
L 354.047002 105.946343 
L 354.090559 105.577619 
L 354.101451 105.208895 
L 354.089156 104.840171 
L 354.065754 104.471447 
L 354.04426 104.102723 
L 354.036082 103.733999 
L 354.047451 103.365275 
L 354.076621 102.99655 
L 354.114823 102.627826 
L 354.151568 102.259102 
L 354.180742 101.890378 
L 354.202866 101.521654 
L 354.222499 101.15293 
L 354.243979 100.784206 
L 354.269173 100.415482 
L 354.297853 100.046758 
L 354.328867 99.678033 
L 354.360489 99.309309 
L 354.390136 98.940585 
L 354.414455 98.571861 
L 354.430099 98.203137 
L 354.434723 97.834413 
L 354.427761 97.465689 
L 354.410942 97.096965 
L 354.388406 96.72824 
L 354.365909 96.359516 
L 354.348962 95.990792 
L 354.340749 95.622068 
L 354.341267 95.253344 
L 354.348298 94.88462 
L 354.359366 94.515896 
L 354.373091 94.147172 
L 354.38906 93.778447 
L 354.406691 93.409723 
L 354.424446 93.040999 
L 354.440186 92.672275 
L 354.452237 92.303551 
L 354.460148 91.934827 
L 354.464594 91.566103 
L 354.466732 91.197379 
L 354.467609 90.828654 
L 354.467895 90.45993 
L 354.467897 90.091206 
L 354.46764 89.722482 
L 354.466923 89.353758 
L 354.465345 88.985034 
L 354.462418 88.61631 
L 354.457879 88.247586 
L 354.452109 87.878861 
L 354.446359 87.510137 
L 354.442427 87.141413 
L 354.44177 86.772689 
L 354.444649 86.403965 
L 354.449959 86.035241 
L 354.455909 85.666517 
L 354.460977 85.297793 
L 354.464475 84.929069 
L 354.471642 84.929069 
L 354.471642 84.929069 
L 354.47514 85.297793 
L 354.480208 85.666517 
L 354.486157 86.035241 
L 354.491467 86.403965 
L 354.494346 86.772689 
L 354.49369 87.141413 
L 354.489757 87.510137 
L 354.484008 87.878861 
L 354.478237 88.247586 
L 354.473699 88.61631 
L 354.470772 88.985034 
L 354.469193 89.353758 
L 354.468476 89.722482 
L 354.46822 90.091206 
L 354.468222 90.45993 
L 354.468508 90.828654 
L 354.469385 91.197379 
L 354.471523 91.566103 
L 354.475968 91.934827 
L 354.48388 92.303551 
L 354.495931 92.672275 
L 354.51167 93.040999 
L 354.529425 93.409723 
L 354.547056 93.778447 
L 354.563025 94.147172 
L 354.576751 94.515896 
L 354.587818 94.88462 
L 354.59485 95.253344 
L 354.595368 95.622068 
L 354.587154 95.990792 
L 354.570207 96.359516 
L 354.547711 96.72824 
L 354.525174 97.096965 
L 354.508355 97.465689 
L 354.501393 97.834413 
L 354.506017 98.203137 
L 354.521661 98.571861 
L 354.545981 98.940585 
L 354.575628 99.309309 
L 354.60725 99.678033 
L 354.638264 100.046758 
L 354.666944 100.415482 
L 354.692138 100.784206 
L 354.713618 101.15293 
L 354.73325 101.521654 
L 354.755375 101.890378 
L 354.784549 102.259102 
L 354.821294 102.627826 
L 354.859496 102.99655 
L 354.888665 103.365275 
L 354.900034 103.733999 
L 354.891857 104.102723 
L 354.870363 104.471447 
L 354.84696 104.840171 
L 354.834666 105.208895 
L 354.845558 105.577619 
L 354.889115 105.946343 
L 354.971117 106.315068 
L 355.09336 106.683792 
L 355.254038 107.052516 
L 355.447946 107.42124 
L 355.666386 107.789964 
L 355.898296 108.158688 
L 356.134117 108.527412 
L 356.371236 108.896136 
L 356.617077 109.264861 
L 356.886416 109.633585 
L 357.193217 110.002309 
L 357.54106 110.371033 
L 357.917381 110.739757 
L 358.295334 111.108481 
L 358.643848 111.477205 
L 358.941959 111.845929 
L 359.190254 112.214654 
L 359.413514 112.583378 
L 359.654264 112.952102 
L 359.961337 113.320826 
L 360.376876 113.68955 
L 360.922072 114.058274 
L 361.582058 114.426998 
L 362.295166 114.795722 
L 362.956728 115.164447 
L 363.445772 115.533171 
L 363.670592 115.901895 
L 363.610791 116.270619 
L 363.324532 116.639343 
L 362.906115 117.008067 
L 362.416686 117.376791 
L 361.839651 117.745515 
L 361.100541 118.11424 
L 360.140953 118.482964 
L 358.989305 118.851688 
L 357.771661 119.220412 
L 356.65521 119.589136 
L 355.769561 119.95786 
L 355.160522 120.326584 
L 354.796365 120.695308 
L 354.606482 121.064032 
L 354.5199 121.432757 
L 354.5199 121.432757 
z
" clip-path="url(#pd1ca8eb57e)" style="fill: none; stroke: #222722; stroke-width: 1.5"/>
   </g>
   <g id="FillBetweenPolyCollection_4">
    <path d="M 372.87874 122.368653 
L 372.86751 122.368653 
L 372.856754 121.862555 
L 372.827734 121.356457 
L 372.753473 120.850359 
L 372.579963 120.34426 
L 372.223763 119.838162 
L 371.598223 119.332064 
L 370.67341 118.825966 
L 369.532126 118.319867 
L 368.3564 117.813769 
L 367.324121 117.307671 
L 366.492936 116.801573 
L 365.784668 116.295474 
L 365.093451 115.789376 
L 364.415917 115.283278 
L 363.882749 114.77718 
L 363.670592 114.271081 
L 363.877785 113.764983 
L 364.461903 113.258885 
L 365.270385 112.752787 
L 366.122522 112.246688 
L 366.881569 111.74059 
L 367.484931 111.234492 
L 367.934107 110.728394 
L 368.26363 110.222295 
L 368.514752 109.716197 
L 368.729007 109.210099 
L 368.950134 108.704001 
L 369.213256 108.197902 
L 369.524959 107.691804 
L 369.859734 107.185706 
L 370.182165 106.679607 
L 370.473296 106.173509 
L 370.736505 105.667411 
L 370.983415 105.161313 
L 371.219704 104.655214 
L 371.443967 104.149116 
L 371.654108 103.643018 
L 371.849379 103.13692 
L 372.026419 102.630821 
L 372.177311 102.124723 
L 372.294403 101.618625 
L 372.37697 101.112527 
L 372.432133 100.606428 
L 372.469451 100.10033 
L 372.495918 99.594232 
L 372.51648 99.088134 
L 372.537283 98.582035 
L 372.565459 98.075937 
L 372.604766 97.569839 
L 372.65215 97.063741 
L 372.699006 96.557642 
L 372.736053 96.051544 
L 372.7584 95.545446 
L 372.767937 95.039348 
L 372.771783 94.533249 
L 372.777927 94.027151 
L 372.790893 93.521053 
L 372.809978 93.014955 
L 372.830702 92.508856 
L 372.848005 92.002758 
L 372.858778 91.49666 
L 372.86243 90.990562 
L 372.86019 90.484463 
L 372.854512 89.978365 
L 372.848746 89.472267 
L 372.846166 88.966169 
L 372.848331 88.46007 
L 372.854213 87.953972 
L 372.861167 87.447874 
L 372.866858 86.941776 
L 372.870403 86.435677 
L 372.872145 85.929579 
L 372.872832 85.423481 
L 372.873052 84.917383 
L 372.873103 84.411284 
L 372.873085 83.905186 
L 372.87296 83.399088 
L 372.872527 82.892989 
L 372.871324 82.386891 
L 372.868634 81.880793 
L 372.863839 81.374695 
L 372.857214 80.868596 
L 372.850527 80.362498 
L 372.846524 79.8564 
L 372.847167 79.350302 
L 372.852104 78.844203 
L 372.8589 78.338105 
L 372.864726 77.832007 
L 372.867756 77.325909 
L 372.867319 76.81981 
L 372.863497 76.313712 
L 372.857211 75.807614 
L 372.850594 75.301516 
L 372.84655 74.795417 
L 372.847125 74.289319 
L 372.85204 73.783221 
L 372.858952 73.277123 
L 372.865229 72.771024 
L 372.869479 72.264926 
L 372.876771 72.264926 
L 372.876771 72.264926 
L 372.881021 72.771024 
L 372.887298 73.277123 
L 372.89421 73.783221 
L 372.899125 74.289319 
L 372.8997 74.795417 
L 372.895656 75.301516 
L 372.889039 75.807614 
L 372.882753 76.313712 
L 372.878931 76.81981 
L 372.878494 77.325909 
L 372.881524 77.832007 
L 372.88735 78.338105 
L 372.894146 78.844203 
L 372.899083 79.350302 
L 372.899726 79.8564 
L 372.895723 80.362498 
L 372.889036 80.868596 
L 372.882411 81.374695 
L 372.877616 81.880793 
L 372.874926 82.386891 
L 372.873723 82.892989 
L 372.87329 83.399088 
L 372.873165 83.905186 
L 372.873147 84.411284 
L 372.873198 84.917383 
L 372.873418 85.423481 
L 372.874105 85.929579 
L 372.875847 86.435677 
L 372.879392 86.941776 
L 372.885083 87.447874 
L 372.892037 87.953972 
L 372.897919 88.46007 
L 372.900084 88.966169 
L 372.897504 89.472267 
L 372.891738 89.978365 
L 372.88606 90.484463 
L 372.88382 90.990562 
L 372.887472 91.49666 
L 372.898245 92.002758 
L 372.915548 92.508856 
L 372.936272 93.014955 
L 372.955357 93.521053 
L 372.968323 94.027151 
L 372.974467 94.533249 
L 372.978313 95.039348 
L 372.98785 95.545446 
L 373.010197 96.051544 
L 373.047244 96.557642 
L 373.0941 97.063741 
L 373.141484 97.569839 
L 373.180791 98.075937 
L 373.208967 98.582035 
L 373.22977 99.088134 
L 373.250332 99.594232 
L 373.276799 100.10033 
L 373.314117 100.606428 
L 373.36928 101.112527 
L 373.451847 101.618625 
L 373.568939 102.124723 
L 373.719831 102.630821 
L 373.896871 103.13692 
L 374.092142 103.643018 
L 374.302283 104.149116 
L 374.526546 104.655214 
L 374.762835 105.161313 
L 375.009745 105.667411 
L 375.272954 106.173509 
L 375.564085 106.679607 
L 375.886516 107.185706 
L 376.221291 107.691804 
L 376.532994 108.197902 
L 376.796116 108.704001 
L 377.017243 109.210099 
L 377.231498 109.716197 
L 377.48262 110.222295 
L 377.812143 110.728394 
L 378.261319 111.234492 
L 378.864681 111.74059 
L 379.623728 112.246688 
L 380.475865 112.752787 
L 381.284347 113.258885 
L 381.868465 113.764983 
L 382.075658 114.271081 
L 381.863501 114.77718 
L 381.330333 115.283278 
L 380.652799 115.789376 
L 379.961582 116.295474 
L 379.253314 116.801573 
L 378.422129 117.307671 
L 377.38985 117.813769 
L 376.214124 118.319867 
L 375.07284 118.825966 
L 374.148027 119.332064 
L 373.522487 119.838162 
L 373.166287 120.34426 
L 372.992777 120.850359 
L 372.918516 121.356457 
L 372.889496 121.862555 
L 372.87874 122.368653 
L 372.87874 122.368653 
z
" clip-path="url(#pd1ca8eb57e)" style="fill: none; stroke: #115411; stroke-width: 1.5"/>
   </g>
   <g id="FillBetweenPolyCollection_5">
    <path d="M 391.288102 122.170452 
L 391.268282 122.170452 
L 391.247538 121.571867 
L 391.191855 120.973281 
L 391.058526 120.374695 
L 390.778471 119.77611 
L 390.270061 119.177524 
L 389.481363 118.578938 
L 388.443261 117.980353 
L 387.285159 117.381767 
L 386.177089 116.783181 
L 385.22921 116.184596 
L 384.435703 115.58601 
L 383.719113 114.987424 
L 383.03567 114.388839 
L 382.444783 113.790253 
L 382.083871 113.191667 
L 382.075658 112.593082 
L 382.445365 111.994496 
L 383.105733 111.39591 
L 383.907947 110.797325 
L 384.710739 110.198739 
L 385.421527 109.600153 
L 385.998872 109.001568 
L 386.435399 108.402982 
L 386.743718 107.804396 
L 386.953873 107.205811 
L 387.114678 106.607225 
L 387.285021 106.008639 
L 387.51195 105.410054 
L 387.809807 104.811468 
L 388.157377 104.212882 
L 388.514437 103.614297 
L 388.84423 103.015711 
L 389.127942 102.417125 
L 389.366514 101.81854 
L 389.573633 101.219954 
L 389.766415 100.621368 
L 389.957742 100.022783 
L 390.151125 99.424197 
L 390.339114 98.825611 
L 390.50718 98.227026 
L 390.642027 97.62844 
L 390.738928 97.029854 
L 390.803023 96.431269 
L 390.844899 95.832683 
L 390.875173 95.234097 
L 390.9019 94.635512 
L 390.930543 94.036926 
L 390.96421 93.43834 
L 391.003274 92.839755 
L 391.045221 92.241169 
L 391.085421 91.642584 
L 391.118707 91.043998 
L 391.141453 90.445412 
L 391.153667 89.846827 
L 391.159843 89.248241 
L 391.167171 88.649655 
L 391.181331 88.05107 
L 391.202757 87.452484 
L 391.226605 86.853898 
L 391.246387 86.255313 
L 391.257933 85.656727 
L 391.260898 85.058141 
L 391.257994 84.459556 
L 391.253398 83.86097 
L 391.251018 83.262384 
L 391.252859 82.663799 
L 391.258333 82.065213 
L 391.265135 81.466627 
L 391.270995 80.868042 
L 391.274867 80.269456 
L 391.276905 79.67087 
L 391.277774 79.072285 
L 391.278078 78.473699 
L 391.278166 77.875113 
L 391.278187 77.276528 
L 391.278191 76.677942 
L 391.278192 76.079356 
L 391.278192 75.480771 
L 391.278192 74.882185 
L 391.278192 74.283599 
L 391.278192 73.685014 
L 391.278191 73.086428 
L 391.278185 72.487842 
L 391.278158 71.889257 
L 391.278044 71.290671 
L 391.277643 70.692085 
L 391.276474 70.0935 
L 391.273646 69.494914 
L 391.268003 68.896328 
L 391.258813 68.297743 
L 391.246862 67.699157 
L 391.23508 67.100571 
L 391.227642 66.501986 
L 391.227659 65.9034 
L 391.235124 65.304814 
L 391.246916 64.706229 
L 391.258859 64.107643 
L 391.268035 63.509057 
L 391.273664 62.910472 
L 391.28272 62.910472 
L 391.28272 62.910472 
L 391.288349 63.509057 
L 391.297524 64.107643 
L 391.309468 64.706229 
L 391.321259 65.304814 
L 391.328724 65.9034 
L 391.328742 66.501986 
L 391.321303 67.100571 
L 391.309521 67.699157 
L 391.297571 68.297743 
L 391.28838 68.896328 
L 391.282737 69.494914 
L 391.279909 70.0935 
L 391.278741 70.692085 
L 391.27834 71.290671 
L 391.278225 71.889257 
L 391.278198 72.487842 
L 391.278193 73.086428 
L 391.278192 73.685014 
L 391.278192 74.283599 
L 391.278192 74.882185 
L 391.278192 75.480771 
L 391.278192 76.079356 
L 391.278192 76.677942 
L 391.278197 77.276528 
L 391.278218 77.875113 
L 391.278305 78.473699 
L 391.278609 79.072285 
L 391.279479 79.67087 
L 391.281516 80.269456 
L 391.285388 80.868042 
L 391.291248 81.466627 
L 391.29805 82.065213 
L 391.303524 82.663799 
L 391.305366 83.262384 
L 391.302985 83.86097 
L 391.298389 84.459556 
L 391.295485 85.058141 
L 391.298451 85.656727 
L 391.309996 86.255313 
L 391.329779 86.853898 
L 391.353627 87.452484 
L 391.375053 88.05107 
L 391.389212 88.649655 
L 391.39654 89.248241 
L 391.402717 89.846827 
L 391.41493 90.445412 
L 391.437676 91.043998 
L 391.470962 91.642584 
L 391.511163 92.241169 
L 391.553109 92.839755 
L 391.592174 93.43834 
L 391.625841 94.036926 
L 391.654483 94.635512 
L 391.68121 95.234097 
L 391.711484 95.832683 
L 391.75336 96.431269 
L 391.817456 97.029854 
L 391.914356 97.62844 
L 392.049203 98.227026 
L 392.21727 98.825611 
L 392.405258 99.424197 
L 392.598641 100.022783 
L 392.789968 100.621368 
L 392.98275 101.219954 
L 393.189869 101.81854 
L 393.428441 102.417125 
L 393.712153 103.015711 
L 394.041946 103.614297 
L 394.399006 104.212882 
L 394.746576 104.811468 
L 395.044433 105.410054 
L 395.271363 106.008639 
L 395.441705 106.607225 
L 395.60251 107.205811 
L 395.812666 107.804396 
L 396.120985 108.402982 
L 396.557511 109.001568 
L 397.134857 109.600153 
L 397.845644 110.198739 
L 398.648436 110.797325 
L 399.45065 111.39591 
L 400.111019 111.994496 
L 400.480725 112.593082 
L 400.472512 113.191667 
L 400.1116 113.790253 
L 399.520714 114.388839 
L 398.837271 114.987424 
L 398.12068 115.58601 
L 397.327174 116.184596 
L 396.379295 116.783181 
L 395.271224 117.381767 
L 394.113123 117.980353 
L 393.075021 118.578938 
L 392.286322 119.177524 
L 391.777913 119.77611 
L 391.497857 120.374695 
L 391.364529 120.973281 
L 391.308845 121.571867 
L 391.288102 122.170452 
L 391.288102 122.170452 
z
" clip-path="url(#pd1ca8eb57e)" style="fill: none; stroke: #008000; stroke-width: 1.5"/>
   </g>
   <g id="matplotlib.axis_5">
    <g id="xtick_3">
     <g id="line2d_15">
      <g>
       <use xlink:href="#m60da5f6476" x="372.873125" y="125.341562" style="stroke: #000000; stroke-width: 0.8"/>
      </g>
     </g>
    </g>
   </g>
   <g id="matplotlib.axis_6">
    <g id="ytick_7">
     <g id="line2d_16">
      <g>
       <use xlink:href="#m2b26998804" x="338.363625" y="122.074483" style="stroke: #000000; stroke-width: 0.8"/>
      </g>
     </g>
     <g id="text_12">
      <text style="font-size: 10px; font-family: 'DejaVu Sans', 'Bitstream Vera Sans', 'Computer Modern Sans Serif', 'Lucida Grande', 'Verdana', 'Geneva', 'Lucid', 'Arial', 'Helvetica', 'Avant Garde', sans-serif; text-anchor: end" x="331.363625" y="125.873702" transform="rotate(-0 331.363625 125.873702)">0</text>
     </g>
    </g>
    <g id="ytick_8">
     <g id="line2d_17">
      <g>
       <use xlink:href="#m2b26998804" x="338.363625" y="83.035339" style="stroke: #000000; stroke-width: 0.8"/>
      </g>
     </g>
     <g id="text_13">
      <text style="font-size: 10px; font-family: 'DejaVu Sans', 'Bitstream Vera Sans', 'Computer Modern Sans Serif', 'Lucida Grande', 'Verdana', 'Geneva', 'Lucid', 'Arial', 'Helvetica', 'Avant Garde', sans-serif; text-anchor: end" x="331.363625" y="86.834558" transform="rotate(-0 331.363625 86.834558)">20</text>
     </g>
    </g>
    <g id="text_14">
     <text style="font-size: 10px; font-family: 'DejaVu Sans', 'Bitstream Vera Sans', 'Computer Modern Sans Serif', 'Lucida Grande', 'Verdana', 'Geneva', 'Lucid', 'Arial', 'Helvetica', 'Avant Garde', sans-serif; text-anchor: middle" x="312.558938" y="92.639562" transform="rotate(-90 312.558938 92.639562)">% new edges</text>
    </g>
   </g>
   <g id="line2d_18">
    <path d="M 354.468058 119.470768 
L 354.468058 105.91178 
" clip-path="url(#pd1ca8eb57e)" style="fill: none; stroke: #222722; stroke-width: 2.25; stroke-linecap: square"/>
   </g>
   <g id="line2d_19">
    <path d="M 354.468058 116.804103 
L 354.468058 112.292863 
" clip-path="url(#pd1ca8eb57e)" style="fill: none; stroke: #222722; stroke-width: 6.75; stroke-linecap: square"/>
   </g>
   <g id="line2d_20">
    <path d="M 354.468058 115.152649 
" clip-path="url(#pd1ca8eb57e)" style="fill: none; stroke: #222722; stroke-width: 1.5; stroke-linecap: square"/>
    <g clip-path="url(#pd1ca8eb57e)">
     <use xlink:href="#mc92f5900ad" x="354.468058" y="115.152649" style="fill: #ffffff; stroke: #ffffff; stroke-width: 1.35"/>
    </g>
   </g>
   <g id="line2d_21">
    <path d="M 372.873125 120.032623 
L 372.873125 101.702528 
" clip-path="url(#pd1ca8eb57e)" style="fill: none; stroke: #115411; stroke-width: 2.25; stroke-linecap: square"/>
   </g>
   <g id="line2d_22">
    <path d="M 372.873125 115.240083 
L 372.873125 109.69772 
" clip-path="url(#pd1ca8eb57e)" style="fill: none; stroke: #115411; stroke-width: 6.75; stroke-linecap: square"/>
   </g>
   <g id="line2d_23">
    <path d="M 372.873125 113.334951 
" clip-path="url(#pd1ca8eb57e)" style="fill: none; stroke: #115411; stroke-width: 1.5; stroke-linecap: square"/>
    <g clip-path="url(#pd1ca8eb57e)">
     <use xlink:href="#mc92f5900ad" x="372.873125" y="113.334951" style="fill: #ffffff; stroke: #ffffff; stroke-width: 1.35"/>
    </g>
   </g>
   <g id="line2d_24">
    <path d="M 391.278192 119.321528 
L 391.278192 96.710068 
" clip-path="url(#pd1ca8eb57e)" style="fill: none; stroke: #008000; stroke-width: 2.25; stroke-linecap: square"/>
   </g>
   <g id="line2d_25">
    <path d="M 391.278192 114.028407 
L 391.278192 107.094108 
" clip-path="url(#pd1ca8eb57e)" style="fill: none; stroke: #008000; stroke-width: 6.75; stroke-linecap: square"/>
   </g>
   <g id="line2d_26">
    <path d="M 391.278192 111.690095 
" clip-path="url(#pd1ca8eb57e)" style="fill: none; stroke: #008000; stroke-width: 1.5; stroke-linecap: square"/>
    <g clip-path="url(#pd1ca8eb57e)">
     <use xlink:href="#mc92f5900ad" x="391.278192" y="111.690095" style="fill: #ffffff; stroke: #ffffff; stroke-width: 1.35"/>
    </g>
   </g>
   <g id="patch_13">
    <path d="M 338.363625 125.341562 
L 338.363625 59.937562 
" style="fill: none; stroke: #000000; stroke-width: 0.8; stroke-linejoin: miter; stroke-linecap: square"/>
   </g>
   <g id="patch_14">
    <path d="M 407.382625 125.341562 
L 407.382625 59.937562 
" style="fill: none; stroke: #000000; stroke-width: 0.8; stroke-linejoin: miter; stroke-linecap: square"/>
   </g>
   <g id="patch_15">
    <path d="M 338.363625 125.341562 
L 407.382625 125.341562 
" style="fill: none; stroke: #000000; stroke-width: 0.8; stroke-linejoin: miter; stroke-linecap: square"/>
   </g>
   <g id="patch_16">
    <path d="M 338.363625 59.937562 
L 407.382625 59.937562 
" style="fill: none; stroke: #000000; stroke-width: 0.8; stroke-linejoin: miter; stroke-linecap: square"/>
   </g>
   <g id="text_15">
    <!-- $\mathbf{f}$ % of edges that -->
    <g transform="translate(320.793125 27.038437)">
     <text>
      <tspan x="0" y="-0.875" style="font-weight: 700; font-size: 12px; font-family: 'DejaVu Sans'">f</tspan>
      <tspan x="5.220703" y="-0.875" style="font-size: 12px; font-family: 'DejaVu Sans'"> </tspan>
      <tspan x="9.035156" y="-0.875" style="font-size: 12px; font-family: 'DejaVu Sans'">%</tspan>
      <tspan x="20.4375" y="-0.875" style="font-size: 12px; font-family: 'DejaVu Sans'"> </tspan>
      <tspan x="24.251953" y="-0.875" style="font-size: 12px; font-family: 'DejaVu Sans'">o</tspan>
      <tspan x="31.59375" y="-0.875" style="font-size: 12px; font-family: 'DejaVu Sans'">f</tspan>
      <tspan x="35.818359" y="-0.875" style="font-size: 12px; font-family: 'DejaVu Sans'"> </tspan>
      <tspan x="39.632812" y="-0.875" style="font-size: 12px; font-family: 'DejaVu Sans'">e</tspan>
      <tspan x="47.015625" y="-0.875" style="font-size: 12px; font-family: 'DejaVu Sans'">d</tspan>
      <tspan x="54.632812" y="-0.875" style="font-size: 12px; font-family: 'DejaVu Sans'">g</tspan>
      <tspan x="62.25" y="-0.875" style="font-size: 12px; font-family: 'DejaVu Sans'">e</tspan>
      <tspan x="69.632812" y="-0.875" style="font-size: 12px; font-family: 'DejaVu Sans'">s</tspan>
      <tspan x="75.884766" y="-0.875" style="font-size: 12px; font-family: 'DejaVu Sans'"> </tspan>
      <tspan x="79.699219" y="-0.875" style="font-size: 12px; font-family: 'DejaVu Sans'">t</tspan>
      <tspan x="84.404297" y="-0.875" style="font-size: 12px; font-family: 'DejaVu Sans'">h</tspan>
      <tspan x="92.009766" y="-0.875" style="font-size: 12px; font-family: 'DejaVu Sans'">a</tspan>
      <tspan x="99.363281" y="-0.875" style="font-size: 12px; font-family: 'DejaVu Sans'">t</tspan>
     </text>
    </g>
    <text style="font-size: 12px; font-family: 'DejaVu Sans', 'Bitstream Vera Sans', 'Computer Modern Sans Serif', 'Lucida Grande', 'Verdana', 'Geneva', 'Lucid', 'Arial', 'Helvetica', 'Avant Garde', sans-serif" transform="translate(314.839063 40.500187)">were not contained</text>
    <text style="font-size: 12px; font-family: 'DejaVu Sans', 'Bitstream Vera Sans', 'Computer Modern Sans Serif', 'Lucida Grande', 'Verdana', 'Geneva', 'Lucid', 'Arial', 'Helvetica', 'Avant Garde', sans-serif" transform="translate(327.725937 53.937562)">in global graph</text>
   </g>
  </g>
  <g id="axes_4">
   <g id="patch_17">
    <path d="M 487.243875 125.341562 
L 556.262875 125.341562 
L 556.262875 59.937562 
L 487.243875 59.937562 
z
" style="fill: #ffffff"/>
   </g>
   <g id="FillBetweenPolyCollection_6">
    <path d="M 504.8876 122.368653 
L 501.809016 122.368653 
L 494.145775 121.768066 
L 494.409542 121.167478 
L 501.935379 120.56689 
L 503.311761 119.966303 
L 503.348151 119.365715 
L 503.348308 118.765127 
L 503.348308 118.16454 
L 503.348308 117.563952 
L 503.348308 116.963364 
L 503.348308 116.362776 
L 503.348308 115.762189 
L 503.348308 115.161601 
L 503.348308 114.561013 
L 503.348308 113.960426 
L 503.348308 113.359838 
L 503.348308 112.75925 
L 503.348308 112.158663 
L 503.348308 111.558075 
L 503.348308 110.957487 
L 503.348308 110.3569 
L 503.348308 109.756312 
L 503.348308 109.155724 
L 503.348308 108.555136 
L 503.348308 107.954549 
L 503.348308 107.353961 
L 503.348308 106.753373 
L 503.348308 106.152786 
L 503.348308 105.552198 
L 503.348308 104.95161 
L 503.348308 104.351023 
L 503.348308 103.750435 
L 503.348308 103.149847 
L 503.348308 102.549259 
L 503.348308 101.948672 
L 503.348308 101.348084 
L 503.348308 100.747496 
L 503.348308 100.146909 
L 503.348308 99.546321 
L 503.348308 98.945733 
L 503.348308 98.345146 
L 503.348308 97.744558 
L 503.348308 97.14397 
L 503.348308 96.543383 
L 503.348308 95.942795 
L 503.348308 95.342207 
L 503.348308 94.741619 
L 503.348308 94.141032 
L 503.348308 93.540444 
L 503.348308 92.939856 
L 503.348308 92.339269 
L 503.348308 91.738681 
L 503.348308 91.138093 
L 503.348308 90.537506 
L 503.348308 89.936918 
L 503.348308 89.33633 
L 503.348308 88.735742 
L 503.348308 88.135155 
L 503.348308 87.534567 
L 503.348308 86.933979 
L 503.348308 86.333392 
L 503.348308 85.732804 
L 503.348308 85.132216 
L 503.348308 84.531629 
L 503.348308 83.931041 
L 503.348308 83.330453 
L 503.348308 82.729866 
L 503.348308 82.129278 
L 503.348308 81.52869 
L 503.348308 80.928102 
L 503.348308 80.327515 
L 503.348308 79.726927 
L 503.348308 79.126339 
L 503.348308 78.525752 
L 503.348308 77.925164 
L 503.348308 77.324576 
L 503.348308 76.723989 
L 503.348308 76.123401 
L 503.348308 75.522813 
L 503.348308 74.922225 
L 503.348308 74.321638 
L 503.348308 73.72105 
L 503.348308 73.120462 
L 503.348308 72.519875 
L 503.348308 71.919287 
L 503.348308 71.318699 
L 503.348308 70.718112 
L 503.348308 70.117524 
L 503.348308 69.516936 
L 503.348308 68.916349 
L 503.348308 68.315761 
L 503.348308 67.715173 
L 503.348308 67.114585 
L 503.348308 66.513998 
L 503.348308 65.91341 
L 503.348274 65.312822 
L 503.346955 64.712235 
L 503.339717 64.111647 
L 503.339453 63.511059 
L 503.346826 62.910472 
L 503.34979 62.910472 
L 503.34979 62.910472 
L 503.357164 63.511059 
L 503.3569 64.111647 
L 503.349662 64.712235 
L 503.348343 65.312822 
L 503.348308 65.91341 
L 503.348308 66.513998 
L 503.348308 67.114585 
L 503.348308 67.715173 
L 503.348308 68.315761 
L 503.348308 68.916349 
L 503.348308 69.516936 
L 503.348308 70.117524 
L 503.348308 70.718112 
L 503.348308 71.318699 
L 503.348308 71.919287 
L 503.348308 72.519875 
L 503.348308 73.120462 
L 503.348308 73.72105 
L 503.348308 74.321638 
L 503.348308 74.922225 
L 503.348308 75.522813 
L 503.348308 76.123401 
L 503.348308 76.723989 
L 503.348308 77.324576 
L 503.348308 77.925164 
L 503.348308 78.525752 
L 503.348308 79.126339 
L 503.348308 79.726927 
L 503.348308 80.327515 
L 503.348308 80.928102 
L 503.348308 81.52869 
L 503.348308 82.129278 
L 503.348308 82.729866 
L 503.348308 83.330453 
L 503.348308 83.931041 
L 503.348308 84.531629 
L 503.348308 85.132216 
L 503.348308 85.732804 
L 503.348308 86.333392 
L 503.348308 86.933979 
L 503.348308 87.534567 
L 503.348308 88.135155 
L 503.348308 88.735742 
L 503.348308 89.33633 
L 503.348308 89.936918 
L 503.348308 90.537506 
L 503.348308 91.138093 
L 503.348308 91.738681 
L 503.348308 92.339269 
L 503.348308 92.939856 
L 503.348308 93.540444 
L 503.348308 94.141032 
L 503.348308 94.741619 
L 503.348308 95.342207 
L 503.348308 95.942795 
L 503.348308 96.543383 
L 503.348308 97.14397 
L 503.348308 97.744558 
L 503.348308 98.345146 
L 503.348308 98.945733 
L 503.348308 99.546321 
L 503.348308 100.146909 
L 503.348308 100.747496 
L 503.348308 101.348084 
L 503.348308 101.948672 
L 503.348308 102.549259 
L 503.348308 103.149847 
L 503.348308 103.750435 
L 503.348308 104.351023 
L 503.348308 104.95161 
L 503.348308 105.552198 
L 503.348308 106.152786 
L 503.348308 106.753373 
L 503.348308 107.353961 
L 503.348308 107.954549 
L 503.348308 108.555136 
L 503.348308 109.155724 
L 503.348308 109.756312 
L 503.348308 110.3569 
L 503.348308 110.957487 
L 503.348308 111.558075 
L 503.348308 112.158663 
L 503.348308 112.75925 
L 503.348308 113.359838 
L 503.348308 113.960426 
L 503.348308 114.561013 
L 503.348308 115.161601 
L 503.348308 115.762189 
L 503.348308 116.362776 
L 503.348308 116.963364 
L 503.348308 117.563952 
L 503.348308 118.16454 
L 503.348308 118.765127 
L 503.348466 119.365715 
L 503.384856 119.966303 
L 504.761237 120.56689 
L 512.287075 121.167478 
L 512.550842 121.768066 
L 504.8876 122.368653 
L 504.8876 122.368653 
z
" clip-path="url(#p42cfae763e)" style="fill: none; stroke: #222722; stroke-width: 1.5"/>
   </g>
   <g id="FillBetweenPolyCollection_7">
    <path d="M 523.293435 121.47777 
L 520.213315 121.47777 
L 512.550842 121.47777 
L 512.825614 121.47777 
L 520.347188 121.47777 
L 521.717416 121.47777 
L 521.753226 121.47777 
L 521.753375 121.47777 
L 521.753375 121.47777 
L 521.753375 121.47777 
L 521.753375 121.47777 
L 521.753375 121.47777 
L 521.753375 121.47777 
L 521.753375 121.47777 
L 521.753375 121.47777 
L 521.753375 121.47777 
L 521.753375 121.47777 
L 521.753375 121.47777 
L 521.753375 121.47777 
L 521.753375 121.47777 
L 521.753375 121.47777 
L 521.753375 121.47777 
L 521.753375 121.47777 
L 521.753375 121.47777 
L 521.753375 121.47777 
L 521.753375 121.47777 
L 521.753375 121.47777 
L 521.753375 121.47777 
L 521.753375 121.47777 
L 521.753375 121.47777 
L 521.753375 121.47777 
L 521.753375 121.47777 
L 521.753375 121.47777 
L 521.753375 121.47777 
L 521.753375 121.47777 
L 521.753375 121.47777 
L 521.753375 121.47777 
L 521.753375 121.47777 
L 521.753375 121.47777 
L 521.753375 121.47777 
L 521.753375 121.47777 
L 521.753375 121.47777 
L 521.753375 121.47777 
L 521.753375 121.47777 
L 521.753375 121.47777 
L 521.753375 121.47777 
L 521.753375 121.47777 
L 521.753375 121.47777 
L 521.753375 121.47777 
L 521.753375 121.47777 
L 521.753375 121.47777 
L 521.753375 121.47777 
L 521.753375 121.47777 
L 521.753375 121.47777 
L 521.753375 121.47777 
L 521.753375 121.47777 
L 521.753375 121.47777 
L 521.753375 121.47777 
L 521.753375 121.47777 
L 521.753375 121.47777 
L 521.753375 121.47777 
L 521.753375 121.47777 
L 521.753375 121.47777 
L 521.753375 121.47777 
L 521.753375 121.47777 
L 521.753375 121.47777 
L 521.753375 121.47777 
L 521.753375 121.47777 
L 521.753375 121.47777 
L 521.753375 121.47777 
L 521.753375 121.47777 
L 521.753375 121.47777 
L 521.753375 121.47777 
L 521.753375 121.47777 
L 521.753375 121.47777 
L 521.753375 121.47777 
L 521.753375 121.47777 
L 521.753375 121.47777 
L 521.753375 121.47777 
L 521.753375 121.47777 
L 521.753375 121.47777 
L 521.753375 121.47777 
L 521.753375 121.47777 
L 521.753375 121.47777 
L 521.753375 121.47777 
L 521.753375 121.47777 
L 521.753375 121.47777 
L 521.753375 121.47777 
L 521.753375 121.47777 
L 521.753375 121.47777 
L 521.753375 121.47777 
L 521.753375 121.47777 
L 521.753375 121.47777 
L 521.753375 121.47777 
L 521.753375 121.47777 
L 521.753375 121.47777 
L 521.75334 121.47777 
L 521.752023 121.47777 
L 521.744791 121.47777 
L 521.744526 121.47777 
L 521.751894 121.47777 
L 521.754856 121.47777 
L 521.754856 121.47777 
L 521.762224 121.47777 
L 521.761959 121.47777 
L 521.754727 121.47777 
L 521.75341 121.47777 
L 521.753375 121.47777 
L 521.753375 121.47777 
L 521.753375 121.47777 
L 521.753375 121.47777 
L 521.753375 121.47777 
L 521.753375 121.47777 
L 521.753375 121.47777 
L 521.753375 121.47777 
L 521.753375 121.47777 
L 521.753375 121.47777 
L 521.753375 121.47777 
L 521.753375 121.47777 
L 521.753375 121.47777 
L 521.753375 121.47777 
L 521.753375 121.47777 
L 521.753375 121.47777 
L 521.753375 121.47777 
L 521.753375 121.47777 
L 521.753375 121.47777 
L 521.753375 121.47777 
L 521.753375 121.47777 
L 521.753375 121.47777 
L 521.753375 121.47777 
L 521.753375 121.47777 
L 521.753375 121.47777 
L 521.753375 121.47777 
L 521.753375 121.47777 
L 521.753375 121.47777 
L 521.753375 121.47777 
L 521.753375 121.47777 
L 521.753375 121.47777 
L 521.753375 121.47777 
L 521.753375 121.47777 
L 521.753375 121.47777 
L 521.753375 121.47777 
L 521.753375 121.47777 
L 521.753375 121.47777 
L 521.753375 121.47777 
L 521.753375 121.47777 
L 521.753375 121.47777 
L 521.753375 121.47777 
L 521.753375 121.47777 
L 521.753375 121.47777 
L 521.753375 121.47777 
L 521.753375 121.47777 
L 521.753375 121.47777 
L 521.753375 121.47777 
L 521.753375 121.47777 
L 521.753375 121.47777 
L 521.753375 121.47777 
L 521.753375 121.47777 
L 521.753375 121.47777 
L 521.753375 121.47777 
L 521.753375 121.47777 
L 521.753375 121.47777 
L 521.753375 121.47777 
L 521.753375 121.47777 
L 521.753375 121.47777 
L 521.753375 121.47777 
L 521.753375 121.47777 
L 521.753375 121.47777 
L 521.753375 121.47777 
L 521.753375 121.47777 
L 521.753375 121.47777 
L 521.753375 121.47777 
L 521.753375 121.47777 
L 521.753375 121.47777 
L 521.753375 121.47777 
L 521.753375 121.47777 
L 521.753375 121.47777 
L 521.753375 121.47777 
L 521.753375 121.47777 
L 521.753375 121.47777 
L 521.753375 121.47777 
L 521.753375 121.47777 
L 521.753375 121.47777 
L 521.753375 121.47777 
L 521.753375 121.47777 
L 521.753375 121.47777 
L 521.753375 121.47777 
L 521.753375 121.47777 
L 521.753375 121.47777 
L 521.753375 121.47777 
L 521.753375 121.47777 
L 521.753375 121.47777 
L 521.753375 121.47777 
L 521.753375 121.47777 
L 521.753375 121.47777 
L 521.753375 121.47777 
L 521.753524 121.47777 
L 521.789334 121.47777 
L 523.159562 121.47777 
L 530.681136 121.47777 
L 530.955908 121.47777 
L 523.293435 121.47777 
L 523.293435 121.47777 
z
" clip-path="url(#p42cfae763e)" style="fill: none; stroke: #115411; stroke-width: 1.5"/>
   </g>
   <g id="FillBetweenPolyCollection_8">
    <path d="M 541.698229 121.47777 
L 538.618655 121.47777 
L 530.955908 121.47777 
L 531.228694 121.47777 
L 538.751548 121.47777 
L 540.122452 121.47777 
L 540.158292 121.47777 
L 540.158442 121.47777 
L 540.158442 121.47777 
L 540.158442 121.47777 
L 540.158442 121.47777 
L 540.158442 121.47777 
L 540.158442 121.47777 
L 540.158442 121.47777 
L 540.158442 121.47777 
L 540.158442 121.47777 
L 540.158442 121.47777 
L 540.158442 121.47777 
L 540.158442 121.47777 
L 540.158442 121.47777 
L 540.158442 121.47777 
L 540.158442 121.47777 
L 540.158442 121.47777 
L 540.158442 121.47777 
L 540.158442 121.47777 
L 540.158442 121.47777 
L 540.158442 121.47777 
L 540.158442 121.47777 
L 540.158442 121.47777 
L 540.158442 121.47777 
L 540.158442 121.47777 
L 540.158442 121.47777 
L 540.158442 121.47777 
L 540.158442 121.47777 
L 540.158442 121.47777 
L 540.158442 121.47777 
L 540.158442 121.47777 
L 540.158442 121.47777 
L 540.158442 121.47777 
L 540.158442 121.47777 
L 540.158442 121.47777 
L 540.158442 121.47777 
L 540.158442 121.47777 
L 540.158442 121.47777 
L 540.158442 121.47777 
L 540.158442 121.47777 
L 540.158442 121.47777 
L 540.158442 121.47777 
L 540.158442 121.47777 
L 540.158442 121.47777 
L 540.158442 121.47777 
L 540.158442 121.47777 
L 540.158442 121.47777 
L 540.158442 121.47777 
L 540.158442 121.47777 
L 540.158442 121.47777 
L 540.158442 121.47777 
L 540.158442 121.47777 
L 540.158442 121.47777 
L 540.158442 121.47777 
L 540.158442 121.47777 
L 540.158442 121.47777 
L 540.158442 121.47777 
L 540.158442 121.47777 
L 540.158442 121.47777 
L 540.158442 121.47777 
L 540.158442 121.47777 
L 540.158442 121.47777 
L 540.158442 121.47777 
L 540.158442 121.47777 
L 540.158442 121.47777 
L 540.158442 121.47777 
L 540.158442 121.47777 
L 540.158442 121.47777 
L 540.158442 121.47777 
L 540.158442 121.47777 
L 540.158442 121.47777 
L 540.158442 121.47777 
L 540.158442 121.47777 
L 540.158442 121.47777 
L 540.158442 121.47777 
L 540.158442 121.47777 
L 540.158442 121.47777 
L 540.158442 121.47777 
L 540.158442 121.47777 
L 540.158442 121.47777 
L 540.158442 121.47777 
L 540.158442 121.47777 
L 540.158442 121.47777 
L 540.158442 121.47777 
L 540.158442 121.47777 
L 540.158442 121.47777 
L 540.158442 121.47777 
L 540.158442 121.47777 
L 540.158442 121.47777 
L 540.158442 121.47777 
L 540.158407 121.47777 
L 540.157089 121.47777 
L 540.149856 121.47777 
L 540.149592 121.47777 
L 540.156961 121.47777 
L 540.159923 121.47777 
L 540.159923 121.47777 
L 540.167291 121.47777 
L 540.167027 121.47777 
L 540.159794 121.47777 
L 540.158476 121.47777 
L 540.158442 121.47777 
L 540.158442 121.47777 
L 540.158442 121.47777 
L 540.158442 121.47777 
L 540.158442 121.47777 
L 540.158442 121.47777 
L 540.158442 121.47777 
L 540.158442 121.47777 
L 540.158442 121.47777 
L 540.158442 121.47777 
L 540.158442 121.47777 
L 540.158442 121.47777 
L 540.158442 121.47777 
L 540.158442 121.47777 
L 540.158442 121.47777 
L 540.158442 121.47777 
L 540.158442 121.47777 
L 540.158442 121.47777 
L 540.158442 121.47777 
L 540.158442 121.47777 
L 540.158442 121.47777 
L 540.158442 121.47777 
L 540.158442 121.47777 
L 540.158442 121.47777 
L 540.158442 121.47777 
L 540.158442 121.47777 
L 540.158442 121.47777 
L 540.158442 121.47777 
L 540.158442 121.47777 
L 540.158442 121.47777 
L 540.158442 121.47777 
L 540.158442 121.47777 
L 540.158442 121.47777 
L 540.158442 121.47777 
L 540.158442 121.47777 
L 540.158442 121.47777 
L 540.158442 121.47777 
L 540.158442 121.47777 
L 540.158442 121.47777 
L 540.158442 121.47777 
L 540.158442 121.47777 
L 540.158442 121.47777 
L 540.158442 121.47777 
L 540.158442 121.47777 
L 540.158442 121.47777 
L 540.158442 121.47777 
L 540.158442 121.47777 
L 540.158442 121.47777 
L 540.158442 121.47777 
L 540.158442 121.47777 
L 540.158442 121.47777 
L 540.158442 121.47777 
L 540.158442 121.47777 
L 540.158442 121.47777 
L 540.158442 121.47777 
L 540.158442 121.47777 
L 540.158442 121.47777 
L 540.158442 121.47777 
L 540.158442 121.47777 
L 540.158442 121.47777 
L 540.158442 121.47777 
L 540.158442 121.47777 
L 540.158442 121.47777 
L 540.158442 121.47777 
L 540.158442 121.47777 
L 540.158442 121.47777 
L 540.158442 121.47777 
L 540.158442 121.47777 
L 540.158442 121.47777 
L 540.158442 121.47777 
L 540.158442 121.47777 
L 540.158442 121.47777 
L 540.158442 121.47777 
L 540.158442 121.47777 
L 540.158442 121.47777 
L 540.158442 121.47777 
L 540.158442 121.47777 
L 540.158442 121.47777 
L 540.158442 121.47777 
L 540.158442 121.47777 
L 540.158442 121.47777 
L 540.158442 121.47777 
L 540.158442 121.47777 
L 540.158442 121.47777 
L 540.158442 121.47777 
L 540.158442 121.47777 
L 540.158442 121.47777 
L 540.158442 121.47777 
L 540.158442 121.47777 
L 540.158591 121.47777 
L 540.194432 121.47777 
L 541.565336 121.47777 
L 549.088189 121.47777 
L 549.360975 121.47777 
L 541.698229 121.47777 
L 541.698229 121.47777 
z
" clip-path="url(#p42cfae763e)" style="fill: none; stroke: #008000; stroke-width: 1.5"/>
   </g>
   <g id="matplotlib.axis_7">
    <g id="xtick_4">
     <g id="line2d_27">
      <g>
       <use xlink:href="#m60da5f6476" x="521.753375" y="125.341562" style="stroke: #000000; stroke-width: 0.8"/>
      </g>
     </g>
    </g>
   </g>
   <g id="matplotlib.axis_8">
    <g id="ytick_9">
     <g id="line2d_28">
      <g>
       <use xlink:href="#m2b26998804" x="487.243875" y="121.47777" style="stroke: #000000; stroke-width: 0.8"/>
      </g>
     </g>
     <g id="text_16">
      <text style="font-size: 10px; font-family: 'DejaVu Sans', 'Bitstream Vera Sans', 'Computer Modern Sans Serif', 'Lucida Grande', 'Verdana', 'Geneva', 'Lucid', 'Arial', 'Helvetica', 'Avant Garde', sans-serif; text-anchor: end" x="480.243875" y="125.276989" transform="rotate(-0 480.243875 125.276989)">0</text>
     </g>
    </g>
    <g id="ytick_10">
     <g id="line2d_29">
      <g>
       <use xlink:href="#m2b26998804" x="487.243875" y="88.470248" style="stroke: #000000; stroke-width: 0.8"/>
      </g>
     </g>
     <g id="text_17">
      <text style="font-size: 10px; font-family: 'DejaVu Sans', 'Bitstream Vera Sans', 'Computer Modern Sans Serif', 'Lucida Grande', 'Verdana', 'Geneva', 'Lucid', 'Arial', 'Helvetica', 'Avant Garde', sans-serif; text-anchor: end" x="480.243875" y="92.269466" transform="rotate(-0 480.243875 92.269466)">2</text>
     </g>
    </g>
    <g id="text_18">
     <text style="font-size: 10px; font-family: 'DejaVu Sans', 'Bitstream Vera Sans', 'Computer Modern Sans Serif', 'Lucida Grande', 'Verdana', 'Geneva', 'Lucid', 'Arial', 'Helvetica', 'Avant Garde', sans-serif; text-anchor: middle" x="467.523562" y="92.639562" transform="rotate(-90 467.523562 92.639562)">P_MWU_adj</text>
    </g>
    <g id="text_19">
     <text style="font-size: 10px; font-family: 'DejaVu Sans', 'Bitstream Vera Sans', 'Computer Modern Sans Serif', 'Lucida Grande', 'Verdana', 'Geneva', 'Lucid', 'Arial', 'Helvetica', 'Avant Garde', sans-serif; text-anchor: start" x="487.243875" y="56.937562" transform="rotate(-0 487.243875 56.937562)">1e−11</text>
    </g>
   </g>
   <g id="line2d_30">
    <path d="M 503.348308 121.47777 
L 503.348308 121.47777 
" clip-path="url(#p42cfae763e)" style="fill: none; stroke: #222722; stroke-width: 2.25; stroke-linecap: square"/>
   </g>
   <g id="line2d_31">
    <path d="M 503.348308 121.47777 
L 503.348308 121.47777 
" clip-path="url(#p42cfae763e)" style="fill: none; stroke: #222722; stroke-width: 6.75; stroke-linecap: square"/>
   </g>
   <g id="line2d_32">
    <path d="M 503.348308 121.47777 
" clip-path="url(#p42cfae763e)" style="fill: none; stroke: #222722; stroke-width: 1.5; stroke-linecap: square"/>
    <g clip-path="url(#p42cfae763e)">
     <use xlink:href="#mc92f5900ad" x="503.348308" y="121.47777" style="fill: #ffffff; stroke: #ffffff; stroke-width: 1.35"/>
    </g>
   </g>
   <g id="line2d_33">
    <path d="M 521.753375 121.47777 
L 521.753375 121.47777 
" clip-path="url(#p42cfae763e)" style="fill: none; stroke: #115411; stroke-width: 2.25; stroke-linecap: square"/>
   </g>
   <g id="line2d_34">
    <path d="M 521.753375 121.47777 
L 521.753375 121.47777 
" clip-path="url(#p42cfae763e)" style="fill: none; stroke: #115411; stroke-width: 6.75; stroke-linecap: square"/>
   </g>
   <g id="line2d_35">
    <path d="M 521.753375 121.47777 
" clip-path="url(#p42cfae763e)" style="fill: none; stroke: #115411; stroke-width: 1.5; stroke-linecap: square"/>
    <g clip-path="url(#p42cfae763e)">
     <use xlink:href="#mc92f5900ad" x="521.753375" y="121.47777" style="fill: #ffffff; stroke: #ffffff; stroke-width: 1.35"/>
    </g>
   </g>
   <g id="line2d_36">
    <path d="M 540.158442 121.47777 
L 540.158442 121.47777 
" clip-path="url(#p42cfae763e)" style="fill: none; stroke: #008000; stroke-width: 2.25; stroke-linecap: square"/>
   </g>
   <g id="line2d_37">
    <path d="M 540.158442 121.47777 
L 540.158442 121.47777 
" clip-path="url(#p42cfae763e)" style="fill: none; stroke: #008000; stroke-width: 6.75; stroke-linecap: square"/>
   </g>
   <g id="line2d_38">
    <path d="M 540.158442 121.47777 
" clip-path="url(#p42cfae763e)" style="fill: none; stroke: #008000; stroke-width: 1.5; stroke-linecap: square"/>
    <g clip-path="url(#p42cfae763e)">
     <use xlink:href="#mc92f5900ad" x="540.158442" y="121.47777" style="fill: #ffffff; stroke: #ffffff; stroke-width: 1.35"/>
    </g>
   </g>
   <g id="patch_18">
    <path d="M 487.243875 125.341562 
L 487.243875 59.937562 
" style="fill: none; stroke: #000000; stroke-width: 0.8; stroke-linejoin: miter; stroke-linecap: square"/>
   </g>
   <g id="patch_19">
    <path d="M 556.262875 125.341562 
L 556.262875 59.937562 
" style="fill: none; stroke: #000000; stroke-width: 0.8; stroke-linejoin: miter; stroke-linecap: square"/>
   </g>
   <g id="patch_20">
    <path d="M 487.243875 125.341562 
L 556.262875 125.341562 
" style="fill: none; stroke: #000000; stroke-width: 0.8; stroke-linejoin: miter; stroke-linecap: square"/>
   </g>
   <g id="patch_21">
    <path d="M 487.243875 59.937562 
L 556.262875 59.937562 
" style="fill: none; stroke: #000000; stroke-width: 0.8; stroke-linejoin: miter; stroke-linecap: square"/>
   </g>
   <g id="text_20">
    <!-- $\mathbf{g}$ Adjusted MWU P-values -->
    <g transform="translate(444.533375 16.32)">
     <text>
      <tspan x="0" y="-0.875" style="font-weight: 700; font-size: 12px; font-family: 'DejaVu Sans'">g</tspan>
      <tspan x="8.589844" y="-0.875" style="font-size: 12px; font-family: 'DejaVu Sans'"> </tspan>
      <tspan x="12.404297" y="-0.875" style="font-size: 12px; font-family: 'DejaVu Sans'">A</tspan>
      <tspan x="20.613281" y="-0.875" style="font-size: 12px; font-family: 'DejaVu Sans'">d</tspan>
      <tspan x="28.230469" y="-0.875" style="font-size: 12px; font-family: 'DejaVu Sans'">j</tspan>
      <tspan x="31.564453" y="-0.875" style="font-size: 12px; font-family: 'DejaVu Sans'">u</tspan>
      <tspan x="39.169922" y="-0.875" style="font-size: 12px; font-family: 'DejaVu Sans'">s</tspan>
      <tspan x="45.421875" y="-0.875" style="font-size: 12px; font-family: 'DejaVu Sans'">t</tspan>
      <tspan x="50.126953" y="-0.875" style="font-size: 12px; font-family: 'DejaVu Sans'">e</tspan>
      <tspan x="57.509766" y="-0.875" style="font-size: 12px; font-family: 'DejaVu Sans'">d</tspan>
      <tspan x="65.126953" y="-0.875" style="font-size: 12px; font-family: 'DejaVu Sans'"> </tspan>
      <tspan x="68.941406" y="-0.875" style="font-size: 12px; font-family: 'DejaVu Sans'">M</tspan>
      <tspan x="79.294922" y="-0.875" style="font-size: 12px; font-family: 'DejaVu Sans'">W</tspan>
      <tspan x="91.160156" y="-0.875" style="font-size: 12px; font-family: 'DejaVu Sans'">U</tspan>
      <tspan x="99.943359" y="-0.875" style="font-size: 12px; font-family: 'DejaVu Sans'"> </tspan>
      <tspan x="103.757812" y="-0.875" style="font-size: 12px; font-family: 'DejaVu Sans'">P</tspan>
      <tspan x="110.994141" y="-0.875" style="font-size: 12px; font-family: 'DejaVu Sans'">-</tspan>
      <tspan x="115.324219" y="-0.875" style="font-size: 12px; font-family: 'DejaVu Sans'">v</tspan>
      <tspan x="122.425781" y="-0.875" style="font-size: 12px; font-family: 'DejaVu Sans'">a</tspan>
      <tspan x="129.779297" y="-0.875" style="font-size: 12px; font-family: 'DejaVu Sans'">l</tspan>
      <tspan x="133.113281" y="-0.875" style="font-size: 12px; font-family: 'DejaVu Sans'">u</tspan>
      <tspan x="140.71875" y="-0.875" style="font-size: 12px; font-family: 'DejaVu Sans'">e</tspan>
      <tspan x="148.101562" y="-0.875" style="font-size: 12px; font-family: 'DejaVu Sans'">s</tspan>
     </text>
    </g>
    <text style="font-size: 12px; font-family: 'DejaVu Sans', 'Bitstream Vera Sans', 'Computer Modern Sans Serif', 'Lucida Grande', 'Verdana', 'Geneva', 'Lucid', 'Arial', 'Helvetica', 'Avant Garde', sans-serif" transform="translate(466.837438 29.90175)">of original vs. new</text>
    <text style="font-size: 12px; font-family: 'DejaVu Sans', 'Bitstream Vera Sans', 'Computer Modern Sans Serif', 'Lucida Grande', 'Verdana', 'Geneva', 'Lucid', 'Arial', 'Helvetica', 'Avant Garde', sans-serif" transform="translate(485.719625 43.339125)">edge length</text>
   </g>
  </g>
  <g id="axes_5">
   <g id="patch_22">
    <path d="M 636.124125 125.341562 
L 705.143125 125.341562 
L 705.143125 59.937562 
L 636.124125 59.937562 
z
" style="fill: #ffffff"/>
   </g>
   <g id="FillBetweenPolyCollection_9">
    <path d="M 653.767768 122.368653 
L 650.689349 122.368653 
L 643.026025 121.768066 
L 643.294803 121.167478 
L 650.820268 120.56689 
L 652.192509 119.966303 
L 652.228408 119.365715 
L 652.228558 118.765127 
L 652.228558 118.16454 
L 652.228558 117.563952 
L 652.228558 116.963364 
L 652.228558 116.362776 
L 652.228558 115.762189 
L 652.228558 115.161601 
L 652.228558 114.561013 
L 652.228558 113.960426 
L 652.228558 113.359838 
L 652.228558 112.75925 
L 652.228558 112.158663 
L 652.228558 111.558075 
L 652.228558 110.957487 
L 652.228558 110.3569 
L 652.228558 109.756312 
L 652.228558 109.155724 
L 652.228558 108.555136 
L 652.228558 107.954549 
L 652.228558 107.353961 
L 652.228558 106.753373 
L 652.228558 106.152786 
L 652.228558 105.552198 
L 652.228558 104.95161 
L 652.228558 104.351023 
L 652.228558 103.750435 
L 652.228558 103.149847 
L 652.228558 102.549259 
L 652.228558 101.948672 
L 652.228558 101.348084 
L 652.228558 100.747496 
L 652.228558 100.146909 
L 652.228558 99.546321 
L 652.228558 98.945733 
L 652.228558 98.345146 
L 652.228558 97.744558 
L 652.228558 97.14397 
L 652.228558 96.543383 
L 652.228558 95.942795 
L 652.228558 95.342207 
L 652.228558 94.741619 
L 652.228558 94.141032 
L 652.228558 93.540444 
L 652.228558 92.939856 
L 652.228558 92.339269 
L 652.228558 91.738681 
L 652.228558 91.138093 
L 652.228558 90.537506 
L 652.228558 89.936918 
L 652.228558 89.33633 
L 652.228558 88.735742 
L 652.228558 88.135155 
L 652.228558 87.534567 
L 652.228558 86.933979 
L 652.228558 86.333392 
L 652.228558 85.732804 
L 652.228558 85.132216 
L 652.228558 84.531629 
L 652.228558 83.931041 
L 652.228558 83.330453 
L 652.228558 82.729866 
L 652.228558 82.129278 
L 652.228558 81.52869 
L 652.228558 80.928102 
L 652.228558 80.327515 
L 652.228558 79.726927 
L 652.228558 79.126339 
L 652.228558 78.525752 
L 652.228558 77.925164 
L 652.228558 77.324576 
L 652.228558 76.723989 
L 652.228558 76.123401 
L 652.228558 75.522813 
L 652.228558 74.922225 
L 652.228558 74.321638 
L 652.228558 73.72105 
L 652.228558 73.120462 
L 652.228558 72.519875 
L 652.228558 71.919287 
L 652.228558 71.318699 
L 652.228558 70.718112 
L 652.228558 70.117524 
L 652.228558 69.516936 
L 652.228558 68.916349 
L 652.228558 68.315761 
L 652.228558 67.715173 
L 652.228558 67.114585 
L 652.228558 66.513998 
L 652.228558 65.91341 
L 652.228524 65.312822 
L 652.227206 64.712235 
L 652.219971 64.111647 
L 652.219707 63.511059 
L 652.227077 62.910472 
L 652.23004 62.910472 
L 652.23004 62.910472 
L 652.23741 63.511059 
L 652.237146 64.111647 
L 652.229911 64.712235 
L 652.228593 65.312822 
L 652.228558 65.91341 
L 652.228558 66.513998 
L 652.228558 67.114585 
L 652.228558 67.715173 
L 652.228558 68.315761 
L 652.228558 68.916349 
L 652.228558 69.516936 
L 652.228558 70.117524 
L 652.228558 70.718112 
L 652.228558 71.318699 
L 652.228558 71.919287 
L 652.228558 72.519875 
L 652.228558 73.120462 
L 652.228558 73.72105 
L 652.228558 74.321638 
L 652.228558 74.922225 
L 652.228558 75.522813 
L 652.228558 76.123401 
L 652.228558 76.723989 
L 652.228558 77.324576 
L 652.228558 77.925164 
L 652.228558 78.525752 
L 652.228558 79.126339 
L 652.228558 79.726927 
L 652.228558 80.327515 
L 652.228558 80.928102 
L 652.228558 81.52869 
L 652.228558 82.129278 
L 652.228558 82.729866 
L 652.228558 83.330453 
L 652.228558 83.931041 
L 652.228558 84.531629 
L 652.228558 85.132216 
L 652.228558 85.732804 
L 652.228558 86.333392 
L 652.228558 86.933979 
L 652.228558 87.534567 
L 652.228558 88.135155 
L 652.228558 88.735742 
L 652.228558 89.33633 
L 652.228558 89.936918 
L 652.228558 90.537506 
L 652.228558 91.138093 
L 652.228558 91.738681 
L 652.228558 92.339269 
L 652.228558 92.939856 
L 652.228558 93.540444 
L 652.228558 94.141032 
L 652.228558 94.741619 
L 652.228558 95.342207 
L 652.228558 95.942795 
L 652.228558 96.543383 
L 652.228558 97.14397 
L 652.228558 97.744558 
L 652.228558 98.345146 
L 652.228558 98.945733 
L 652.228558 99.546321 
L 652.228558 100.146909 
L 652.228558 100.747496 
L 652.228558 101.348084 
L 652.228558 101.948672 
L 652.228558 102.549259 
L 652.228558 103.149847 
L 652.228558 103.750435 
L 652.228558 104.351023 
L 652.228558 104.95161 
L 652.228558 105.552198 
L 652.228558 106.152786 
L 652.228558 106.753373 
L 652.228558 107.353961 
L 652.228558 107.954549 
L 652.228558 108.555136 
L 652.228558 109.155724 
L 652.228558 109.756312 
L 652.228558 110.3569 
L 652.228558 110.957487 
L 652.228558 111.558075 
L 652.228558 112.158663 
L 652.228558 112.75925 
L 652.228558 113.359838 
L 652.228558 113.960426 
L 652.228558 114.561013 
L 652.228558 115.161601 
L 652.228558 115.762189 
L 652.228558 116.362776 
L 652.228558 116.963364 
L 652.228558 117.563952 
L 652.228558 118.16454 
L 652.228558 118.765127 
L 652.228708 119.365715 
L 652.264608 119.966303 
L 653.636849 120.56689 
L 661.162314 121.167478 
L 661.431092 121.768066 
L 653.767768 122.368653 
L 653.767768 122.368653 
z
" clip-path="url(#p9e170ca155)" style="fill: none; stroke: #222722; stroke-width: 1.5"/>
   </g>
   <g id="FillBetweenPolyCollection_10">
    <path d="M 672.173355 121.477787 
L 669.093895 121.477787 
L 661.431092 121.477787 
L 661.703269 121.477787 
L 669.226474 121.477787 
L 670.597622 121.477787 
L 670.633475 121.477787 
L 670.633625 121.477787 
L 670.633625 121.477787 
L 670.633625 121.477787 
L 670.633625 121.477787 
L 670.633625 121.477787 
L 670.633625 121.477787 
L 670.633625 121.477787 
L 670.633625 121.477787 
L 670.633625 121.477787 
L 670.633625 121.477787 
L 670.633625 121.477787 
L 670.633625 121.477787 
L 670.633625 121.477787 
L 670.633625 121.477787 
L 670.633625 121.477787 
L 670.633625 121.477787 
L 670.633625 121.477787 
L 670.633625 121.477787 
L 670.633625 121.477787 
L 670.633625 121.477787 
L 670.633625 121.477787 
L 670.633625 121.477787 
L 670.633625 121.477787 
L 670.633625 121.477787 
L 670.633625 121.477787 
L 670.633625 121.477787 
L 670.633625 121.477787 
L 670.633625 121.477787 
L 670.633625 121.477787 
L 670.633625 121.477787 
L 670.633625 121.477787 
L 670.633625 121.477787 
L 670.633625 121.477787 
L 670.633625 121.477787 
L 670.633625 121.477787 
L 670.633625 121.477787 
L 670.633625 121.477787 
L 670.633625 121.477787 
L 670.633625 121.477787 
L 670.633625 121.477787 
L 670.633625 121.477787 
L 670.633625 121.477787 
L 670.633625 121.477787 
L 670.633625 121.477787 
L 670.633625 121.477787 
L 670.633625 121.477787 
L 670.633625 121.477787 
L 670.633625 121.477787 
L 670.633625 121.477787 
L 670.633625 121.477787 
L 670.633625 121.477787 
L 670.633625 121.477787 
L 670.633625 121.477787 
L 670.633625 121.477787 
L 670.633625 121.477787 
L 670.633625 121.477787 
L 670.633625 121.477787 
L 670.633625 121.477787 
L 670.633625 121.477787 
L 670.633625 121.477787 
L 670.633625 121.477787 
L 670.633625 121.477787 
L 670.633625 121.477787 
L 670.633625 121.477787 
L 670.633625 121.477787 
L 670.633625 121.477787 
L 670.633625 121.477787 
L 670.633625 121.477787 
L 670.633625 121.477787 
L 670.633625 121.477787 
L 670.633625 121.477787 
L 670.633625 121.477787 
L 670.633625 121.477787 
L 670.633625 121.477787 
L 670.633625 121.477787 
L 670.633625 121.477787 
L 670.633625 121.477787 
L 670.633625 121.477787 
L 670.633625 121.477787 
L 670.633625 121.477787 
L 670.633625 121.477787 
L 670.633625 121.477787 
L 670.633625 121.477787 
L 670.633625 121.477787 
L 670.633625 121.477787 
L 670.633625 121.477787 
L 670.633625 121.477787 
L 670.633625 121.477787 
L 670.633625 121.477787 
L 670.63359 121.477787 
L 670.632273 121.477787 
L 670.625039 121.477787 
L 670.624775 121.477787 
L 670.632144 121.477787 
L 670.635106 121.477787 
L 670.635106 121.477787 
L 670.642475 121.477787 
L 670.642211 121.477787 
L 670.634977 121.477787 
L 670.63366 121.477787 
L 670.633625 121.477787 
L 670.633625 121.477787 
L 670.633625 121.477787 
L 670.633625 121.477787 
L 670.633625 121.477787 
L 670.633625 121.477787 
L 670.633625 121.477787 
L 670.633625 121.477787 
L 670.633625 121.477787 
L 670.633625 121.477787 
L 670.633625 121.477787 
L 670.633625 121.477787 
L 670.633625 121.477787 
L 670.633625 121.477787 
L 670.633625 121.477787 
L 670.633625 121.477787 
L 670.633625 121.477787 
L 670.633625 121.477787 
L 670.633625 121.477787 
L 670.633625 121.477787 
L 670.633625 121.477787 
L 670.633625 121.477787 
L 670.633625 121.477787 
L 670.633625 121.477787 
L 670.633625 121.477787 
L 670.633625 121.477787 
L 670.633625 121.477787 
L 670.633625 121.477787 
L 670.633625 121.477787 
L 670.633625 121.477787 
L 670.633625 121.477787 
L 670.633625 121.477787 
L 670.633625 121.477787 
L 670.633625 121.477787 
L 670.633625 121.477787 
L 670.633625 121.477787 
L 670.633625 121.477787 
L 670.633625 121.477787 
L 670.633625 121.477787 
L 670.633625 121.477787 
L 670.633625 121.477787 
L 670.633625 121.477787 
L 670.633625 121.477787 
L 670.633625 121.477787 
L 670.633625 121.477787 
L 670.633625 121.477787 
L 670.633625 121.477787 
L 670.633625 121.477787 
L 670.633625 121.477787 
L 670.633625 121.477787 
L 670.633625 121.477787 
L 670.633625 121.477787 
L 670.633625 121.477787 
L 670.633625 121.477787 
L 670.633625 121.477787 
L 670.633625 121.477787 
L 670.633625 121.477787 
L 670.633625 121.477787 
L 670.633625 121.477787 
L 670.633625 121.477787 
L 670.633625 121.477787 
L 670.633625 121.477787 
L 670.633625 121.477787 
L 670.633625 121.477787 
L 670.633625 121.477787 
L 670.633625 121.477787 
L 670.633625 121.477787 
L 670.633625 121.477787 
L 670.633625 121.477787 
L 670.633625 121.477787 
L 670.633625 121.477787 
L 670.633625 121.477787 
L 670.633625 121.477787 
L 670.633625 121.477787 
L 670.633625 121.477787 
L 670.633625 121.477787 
L 670.633625 121.477787 
L 670.633625 121.477787 
L 670.633625 121.477787 
L 670.633625 121.477787 
L 670.633625 121.477787 
L 670.633625 121.477787 
L 670.633625 121.477787 
L 670.633625 121.477787 
L 670.633625 121.477787 
L 670.633625 121.477787 
L 670.633625 121.477787 
L 670.633625 121.477787 
L 670.633625 121.477787 
L 670.633775 121.477787 
L 670.669628 121.477787 
L 672.040776 121.477787 
L 679.563981 121.477787 
L 679.836158 121.477787 
L 672.173355 121.477787 
L 672.173355 121.477787 
z
" clip-path="url(#p9e170ca155)" style="fill: none; stroke: #115411; stroke-width: 1.5"/>
   </g>
   <g id="FillBetweenPolyCollection_11">
    <path d="M 690.578752 121.477787 
L 687.498632 121.477787 
L 679.836158 121.477787 
L 680.110931 121.477787 
L 687.632505 121.477787 
L 689.002733 121.477787 
L 689.038542 121.477787 
L 689.038692 121.477787 
L 689.038692 121.477787 
L 689.038692 121.477787 
L 689.038692 121.477787 
L 689.038692 121.477787 
L 689.038692 121.477787 
L 689.038692 121.477787 
L 689.038692 121.477787 
L 689.038692 121.477787 
L 689.038692 121.477787 
L 689.038692 121.477787 
L 689.038692 121.477787 
L 689.038692 121.477787 
L 689.038692 121.477787 
L 689.038692 121.477787 
L 689.038692 121.477787 
L 689.038692 121.477787 
L 689.038692 121.477787 
L 689.038692 121.477787 
L 689.038692 121.477787 
L 689.038692 121.477787 
L 689.038692 121.477787 
L 689.038692 121.477787 
L 689.038692 121.477787 
L 689.038692 121.477787 
L 689.038692 121.477787 
L 689.038692 121.477787 
L 689.038692 121.477787 
L 689.038692 121.477787 
L 689.038692 121.477787 
L 689.038692 121.477787 
L 689.038692 121.477787 
L 689.038692 121.477787 
L 689.038692 121.477787 
L 689.038692 121.477787 
L 689.038692 121.477787 
L 689.038692 121.477787 
L 689.038692 121.477787 
L 689.038692 121.477787 
L 689.038692 121.477787 
L 689.038692 121.477787 
L 689.038692 121.477787 
L 689.038692 121.477787 
L 689.038692 121.477787 
L 689.038692 121.477787 
L 689.038692 121.477787 
L 689.038692 121.477787 
L 689.038692 121.477787 
L 689.038692 121.477787 
L 689.038692 121.477787 
L 689.038692 121.477787 
L 689.038692 121.477787 
L 689.038692 121.477787 
L 689.038692 121.477787 
L 689.038692 121.477787 
L 689.038692 121.477787 
L 689.038692 121.477787 
L 689.038692 121.477787 
L 689.038692 121.477787 
L 689.038692 121.477787 
L 689.038692 121.477787 
L 689.038692 121.477787 
L 689.038692 121.477787 
L 689.038692 121.477787 
L 689.038692 121.477787 
L 689.038692 121.477787 
L 689.038692 121.477787 
L 689.038692 121.477787 
L 689.038692 121.477787 
L 689.038692 121.477787 
L 689.038692 121.477787 
L 689.038692 121.477787 
L 689.038692 121.477787 
L 689.038692 121.477787 
L 689.038692 121.477787 
L 689.038692 121.477787 
L 689.038692 121.477787 
L 689.038692 121.477787 
L 689.038692 121.477787 
L 689.038692 121.477787 
L 689.038692 121.477787 
L 689.038692 121.477787 
L 689.038692 121.477787 
L 689.038692 121.477787 
L 689.038692 121.477787 
L 689.038692 121.477787 
L 689.038692 121.477787 
L 689.038692 121.477787 
L 689.038692 121.477787 
L 689.038657 121.477787 
L 689.03734 121.477787 
L 689.030107 121.477787 
L 689.029843 121.477787 
L 689.037211 121.477787 
L 689.040172 121.477787 
L 689.040172 121.477787 
L 689.04754 121.477787 
L 689.047276 121.477787 
L 689.040044 121.477787 
L 689.038726 121.477787 
L 689.038692 121.477787 
L 689.038692 121.477787 
L 689.038692 121.477787 
L 689.038692 121.477787 
L 689.038692 121.477787 
L 689.038692 121.477787 
L 689.038692 121.477787 
L 689.038692 121.477787 
L 689.038692 121.477787 
L 689.038692 121.477787 
L 689.038692 121.477787 
L 689.038692 121.477787 
L 689.038692 121.477787 
L 689.038692 121.477787 
L 689.038692 121.477787 
L 689.038692 121.477787 
L 689.038692 121.477787 
L 689.038692 121.477787 
L 689.038692 121.477787 
L 689.038692 121.477787 
L 689.038692 121.477787 
L 689.038692 121.477787 
L 689.038692 121.477787 
L 689.038692 121.477787 
L 689.038692 121.477787 
L 689.038692 121.477787 
L 689.038692 121.477787 
L 689.038692 121.477787 
L 689.038692 121.477787 
L 689.038692 121.477787 
L 689.038692 121.477787 
L 689.038692 121.477787 
L 689.038692 121.477787 
L 689.038692 121.477787 
L 689.038692 121.477787 
L 689.038692 121.477787 
L 689.038692 121.477787 
L 689.038692 121.477787 
L 689.038692 121.477787 
L 689.038692 121.477787 
L 689.038692 121.477787 
L 689.038692 121.477787 
L 689.038692 121.477787 
L 689.038692 121.477787 
L 689.038692 121.477787 
L 689.038692 121.477787 
L 689.038692 121.477787 
L 689.038692 121.477787 
L 689.038692 121.477787 
L 689.038692 121.477787 
L 689.038692 121.477787 
L 689.038692 121.477787 
L 689.038692 121.477787 
L 689.038692 121.477787 
L 689.038692 121.477787 
L 689.038692 121.477787 
L 689.038692 121.477787 
L 689.038692 121.477787 
L 689.038692 121.477787 
L 689.038692 121.477787 
L 689.038692 121.477787 
L 689.038692 121.477787 
L 689.038692 121.477787 
L 689.038692 121.477787 
L 689.038692 121.477787 
L 689.038692 121.477787 
L 689.038692 121.477787 
L 689.038692 121.477787 
L 689.038692 121.477787 
L 689.038692 121.477787 
L 689.038692 121.477787 
L 689.038692 121.477787 
L 689.038692 121.477787 
L 689.038692 121.477787 
L 689.038692 121.477787 
L 689.038692 121.477787 
L 689.038692 121.477787 
L 689.038692 121.477787 
L 689.038692 121.477787 
L 689.038692 121.477787 
L 689.038692 121.477787 
L 689.038692 121.477787 
L 689.038692 121.477787 
L 689.038692 121.477787 
L 689.038692 121.477787 
L 689.038692 121.477787 
L 689.038692 121.477787 
L 689.038692 121.477787 
L 689.038692 121.477787 
L 689.038841 121.477787 
L 689.074651 121.477787 
L 690.444879 121.477787 
L 697.966453 121.477787 
L 698.241225 121.477787 
L 690.578752 121.477787 
L 690.578752 121.477787 
z
" clip-path="url(#p9e170ca155)" style="fill: none; stroke: #008000; stroke-width: 1.5"/>
   </g>
   <g id="patch_23">
    <path d="M 670.633625 121.477787 
L 670.633625 121.477787 
L 670.633625 121.477787 
L 670.633625 121.477787 
L 670.633625 121.477787 
z
" clip-path="url(#p9e170ca155)" style="fill: none; stroke: #222722; stroke-width: 1.5; stroke-linejoin: miter"/>
   </g>
   <g id="patch_24">
    <path d="M 670.633625 121.477787 
L 670.633625 121.477787 
L 670.633625 121.477787 
L 670.633625 121.477787 
L 670.633625 121.477787 
z
" clip-path="url(#p9e170ca155)" style="fill: none; stroke: #115411; stroke-width: 1.5; stroke-linejoin: miter"/>
   </g>
   <g id="patch_25">
    <path d="M 670.633625 121.477787 
L 670.633625 121.477787 
L 670.633625 121.477787 
L 670.633625 121.477787 
L 670.633625 121.477787 
z
" clip-path="url(#p9e170ca155)" style="fill: none; stroke: #008000; stroke-width: 1.5; stroke-linejoin: miter"/>
   </g>
   <g id="matplotlib.axis_9">
    <g id="xtick_5">
     <g id="line2d_39">
      <g>
       <use xlink:href="#m60da5f6476" x="670.633625" y="125.341562" style="stroke: #000000; stroke-width: 0.8"/>
      </g>
     </g>
    </g>
   </g>
   <g id="matplotlib.axis_10">
    <g id="ytick_11">
     <g id="line2d_40">
      <g>
       <use xlink:href="#m2b26998804" x="636.124125" y="121.477787" style="stroke: #000000; stroke-width: 0.8"/>
      </g>
     </g>
     <g id="text_21">
      <text style="font-size: 10px; font-family: 'DejaVu Sans', 'Bitstream Vera Sans', 'Computer Modern Sans Serif', 'Lucida Grande', 'Verdana', 'Geneva', 'Lucid', 'Arial', 'Helvetica', 'Avant Garde', sans-serif; text-anchor: end" x="629.124125" y="125.277006" transform="rotate(-0 629.124125 125.277006)">0.00000</text>
     </g>
    </g>
    <g id="ytick_12">
     <g id="line2d_41">
      <g>
       <use xlink:href="#m2b26998804" x="636.124125" y="94.287092" style="stroke: #000000; stroke-width: 0.8"/>
      </g>
     </g>
     <g id="text_22">
      <text style="font-size: 10px; font-family: 'DejaVu Sans', 'Bitstream Vera Sans', 'Computer Modern Sans Serif', 'Lucida Grande', 'Verdana', 'Geneva', 'Lucid', 'Arial', 'Helvetica', 'Avant Garde', sans-serif; text-anchor: end" x="629.124125" y="98.086311" transform="rotate(-0 629.124125 98.086311)">0.00005</text>
     </g>
    </g>
    <g id="ytick_13">
     <g id="line2d_42">
      <g>
       <use xlink:href="#m2b26998804" x="636.124125" y="67.096397" style="stroke: #000000; stroke-width: 0.8"/>
      </g>
     </g>
     <g id="text_23">
      <text style="font-size: 10px; font-family: 'DejaVu Sans', 'Bitstream Vera Sans', 'Computer Modern Sans Serif', 'Lucida Grande', 'Verdana', 'Geneva', 'Lucid', 'Arial', 'Helvetica', 'Avant Garde', sans-serif; text-anchor: end" x="629.124125" y="70.895616" transform="rotate(-0 629.124125 70.895616)">0.00010</text>
     </g>
    </g>
    <g id="text_24">
     <text style="font-size: 10px; font-family: 'DejaVu Sans', 'Bitstream Vera Sans', 'Computer Modern Sans Serif', 'Lucida Grande', 'Verdana', 'Geneva', 'Lucid', 'Arial', 'Helvetica', 'Avant Garde', sans-serif; text-anchor: middle" x="581.413187" y="92.639562" transform="rotate(-90 581.413187 92.639562)">P_fisher_adj</text>
    </g>
   </g>
   <g id="line2d_43">
    <path d="M 652.228558 121.477787 
L 652.228558 121.477787 
" clip-path="url(#p9e170ca155)" style="fill: none; stroke: #222722; stroke-width: 2.25; stroke-linecap: square"/>
   </g>
   <g id="line2d_44">
    <path d="M 652.228558 121.477787 
L 652.228558 121.477787 
" clip-path="url(#p9e170ca155)" style="fill: none; stroke: #222722; stroke-width: 6.75; stroke-linecap: square"/>
   </g>
   <g id="line2d_45">
    <path d="M 652.228558 121.477787 
" clip-path="url(#p9e170ca155)" style="fill: none; stroke: #222722; stroke-width: 1.5; stroke-linecap: square"/>
    <g clip-path="url(#p9e170ca155)">
     <use xlink:href="#mc92f5900ad" x="652.228558" y="121.477787" style="fill: #ffffff; stroke: #ffffff; stroke-width: 1.35"/>
    </g>
   </g>
   <g id="line2d_46">
    <path d="M 670.633625 121.477787 
L 670.633625 121.477787 
" clip-path="url(#p9e170ca155)" style="fill: none; stroke: #115411; stroke-width: 2.25; stroke-linecap: square"/>
   </g>
   <g id="line2d_47">
    <path d="M 670.633625 121.477787 
L 670.633625 121.477787 
" clip-path="url(#p9e170ca155)" style="fill: none; stroke: #115411; stroke-width: 6.75; stroke-linecap: square"/>
   </g>
   <g id="line2d_48">
    <path d="M 670.633625 121.477787 
" clip-path="url(#p9e170ca155)" style="fill: none; stroke: #115411; stroke-width: 1.5; stroke-linecap: square"/>
    <g clip-path="url(#p9e170ca155)">
     <use xlink:href="#mc92f5900ad" x="670.633625" y="121.477787" style="fill: #ffffff; stroke: #ffffff; stroke-width: 1.35"/>
    </g>
   </g>
   <g id="line2d_49">
    <path d="M 689.038692 121.477787 
L 689.038692 121.477787 
" clip-path="url(#p9e170ca155)" style="fill: none; stroke: #008000; stroke-width: 2.25; stroke-linecap: square"/>
   </g>
   <g id="line2d_50">
    <path d="M 689.038692 121.477787 
L 689.038692 121.477787 
" clip-path="url(#p9e170ca155)" style="fill: none; stroke: #008000; stroke-width: 6.75; stroke-linecap: square"/>
   </g>
   <g id="line2d_51">
    <path d="M 689.038692 121.477787 
" clip-path="url(#p9e170ca155)" style="fill: none; stroke: #008000; stroke-width: 1.5; stroke-linecap: square"/>
    <g clip-path="url(#p9e170ca155)">
     <use xlink:href="#mc92f5900ad" x="689.038692" y="121.477787" style="fill: #ffffff; stroke: #ffffff; stroke-width: 1.35"/>
    </g>
   </g>
   <g id="patch_26">
    <path d="M 636.124125 125.341562 
L 636.124125 59.937562 
" style="fill: none; stroke: #000000; stroke-width: 0.8; stroke-linejoin: miter; stroke-linecap: square"/>
   </g>
   <g id="patch_27">
    <path d="M 705.143125 125.341562 
L 705.143125 59.937562 
" style="fill: none; stroke: #000000; stroke-width: 0.8; stroke-linejoin: miter; stroke-linecap: square"/>
   </g>
   <g id="patch_28">
    <path d="M 636.124125 125.341562 
L 705.143125 125.341562 
" style="fill: none; stroke: #000000; stroke-width: 0.8; stroke-linejoin: miter; stroke-linecap: square"/>
   </g>
   <g id="patch_29">
    <path d="M 636.124125 59.937562 
L 705.143125 59.937562 
" style="fill: none; stroke: #000000; stroke-width: 0.8; stroke-linejoin: miter; stroke-linecap: square"/>
   </g>
   <g id="text_25">
    <!-- $\mathbf{h}$ Adjusted Fisher's exact -->
    <g transform="translate(594.673625 27.038437)">
     <text>
      <tspan x="0" y="-0.875" style="font-weight: 700; font-size: 12px; font-family: 'DejaVu Sans'">h</tspan>
      <tspan x="8.542969" y="-0.875" style="font-size: 12px; font-family: 'DejaVu Sans'"> </tspan>
      <tspan x="12.357422" y="-0.875" style="font-size: 12px; font-family: 'DejaVu Sans'">A</tspan>
      <tspan x="20.566406" y="-0.875" style="font-size: 12px; font-family: 'DejaVu Sans'">d</tspan>
      <tspan x="28.183594" y="-0.875" style="font-size: 12px; font-family: 'DejaVu Sans'">j</tspan>
      <tspan x="31.517578" y="-0.875" style="font-size: 12px; font-family: 'DejaVu Sans'">u</tspan>
      <tspan x="39.123047" y="-0.875" style="font-size: 12px; font-family: 'DejaVu Sans'">s</tspan>
      <tspan x="45.375" y="-0.875" style="font-size: 12px; font-family: 'DejaVu Sans'">t</tspan>
      <tspan x="50.080078" y="-0.875" style="font-size: 12px; font-family: 'DejaVu Sans'">e</tspan>
      <tspan x="57.462891" y="-0.875" style="font-size: 12px; font-family: 'DejaVu Sans'">d</tspan>
      <tspan x="65.080078" y="-0.875" style="font-size: 12px; font-family: 'DejaVu Sans'"> </tspan>
      <tspan x="68.894531" y="-0.875" style="font-size: 12px; font-family: 'DejaVu Sans'">F</tspan>
      <tspan x="75.796875" y="-0.875" style="font-size: 12px; font-family: 'DejaVu Sans'">i</tspan>
      <tspan x="79.130859" y="-0.875" style="font-size: 12px; font-family: 'DejaVu Sans'">s</tspan>
      <tspan x="85.382812" y="-0.875" style="font-size: 12px; font-family: 'DejaVu Sans'">h</tspan>
      <tspan x="92.988281" y="-0.875" style="font-size: 12px; font-family: 'DejaVu Sans'">e</tspan>
      <tspan x="100.371094" y="-0.875" style="font-size: 12px; font-family: 'DejaVu Sans'">r</tspan>
      <tspan x="105.304688" y="-0.875" style="font-size: 12px; font-family: 'DejaVu Sans'">'</tspan>
      <tspan x="108.603516" y="-0.875" style="font-size: 12px; font-family: 'DejaVu Sans'">s</tspan>
      <tspan x="114.855469" y="-0.875" style="font-size: 12px; font-family: 'DejaVu Sans'"> </tspan>
      <tspan x="118.669922" y="-0.875" style="font-size: 12px; font-family: 'DejaVu Sans'">e</tspan>
      <tspan x="126.052734" y="-0.875" style="font-size: 12px; font-family: 'DejaVu Sans'">x</tspan>
      <tspan x="133.154297" y="-0.875" style="font-size: 12px; font-family: 'DejaVu Sans'">a</tspan>
      <tspan x="140.507812" y="-0.875" style="font-size: 12px; font-family: 'DejaVu Sans'">c</tspan>
      <tspan x="147.105469" y="-0.875" style="font-size: 12px; font-family: 'DejaVu Sans'">t</tspan>
     </text>
    </g>
    <text style="font-size: 12px; font-family: 'DejaVu Sans', 'Bitstream Vera Sans', 'Computer Modern Sans Serif', 'Lucida Grande', 'Verdana', 'Geneva', 'Lucid', 'Arial', 'Helvetica', 'Avant Garde', sans-serif" transform="translate(603.113937 40.500187)">P-values of original vs.</text>
    <text style="font-size: 12px; font-family: 'DejaVu Sans', 'Bitstream Vera Sans', 'Computer Modern Sans Serif', 'Lucida Grande', 'Verdana', 'Geneva', 'Lucid', 'Arial', 'Helvetica', 'Avant Garde', sans-serif" transform="translate(608.98925 53.937562)">new edge symmetry</text>
   </g>
   <g id="legend_1">
    <g id="patch_30">
     <path d="M 643.124125 120.341562 
L 687.849125 120.341562 
Q 689.849125 120.341562 689.849125 118.341562 
L 689.849125 60.629062 
Q 689.849125 58.629062 687.849125 58.629062 
L 643.124125 58.629062 
Q 641.124125 58.629062 641.124125 60.629062 
L 641.124125 118.341562 
Q 641.124125 120.341562 643.124125 120.341562 
z
" style="fill: #ffffff; opacity: 0.8; stroke: #cccccc; stroke-linejoin: miter"/>
    </g>
    <g id="text_26">
     <text style="font-size: 10px; font-family: 'DejaVu Sans', 'Bitstream Vera Sans', 'Computer Modern Sans Serif', 'Lucida Grande', 'Verdana', 'Geneva', 'Lucid', 'Arial', 'Helvetica', 'Avant Garde', sans-serif; text-anchor: start" x="662.591312" y="70.2275" transform="rotate(-0 662.591312 70.2275)">k</text>
    </g>
    <g id="patch_31">
     <path d="M 645.124125 84.905625 
L 665.124125 84.905625 
L 665.124125 77.905625 
L 645.124125 77.905625 
L 645.124125 84.905625 
z
" style="fill: none; stroke: #222722; stroke-width: 1.5; stroke-linejoin: miter"/>
    </g>
    <g id="text_27">
     <text style="font-size: 10px; font-family: 'DejaVu Sans', 'Bitstream Vera Sans', 'Computer Modern Sans Serif', 'Lucida Grande', 'Verdana', 'Geneva', 'Lucid', 'Arial', 'Helvetica', 'Avant Garde', sans-serif; text-anchor: start" x="673.124125" y="84.905625" transform="rotate(-0 673.124125 84.905625)">5</text>
    </g>
    <g id="patch_32">
     <path d="M 645.124125 99.58375 
L 665.124125 99.58375 
L 665.124125 92.58375 
L 645.124125 92.58375 
L 645.124125 99.58375 
z
" style="fill: none; stroke: #115411; stroke-width: 1.5; stroke-linejoin: miter"/>
    </g>
    <g id="text_28">
     <text style="font-size: 10px; font-family: 'DejaVu Sans', 'Bitstream Vera Sans', 'Computer Modern Sans Serif', 'Lucida Grande', 'Verdana', 'Geneva', 'Lucid', 'Arial', 'Helvetica', 'Avant Garde', sans-serif; text-anchor: start" x="673.124125" y="99.58375" transform="rotate(-0 673.124125 99.58375)">10</text>
    </g>
    <g id="patch_33">
     <path d="M 645.124125 114.261875 
L 665.124125 114.261875 
L 665.124125 107.261875 
L 645.124125 107.261875 
L 645.124125 114.261875 
z
" style="fill: none; stroke: #008000; stroke-width: 1.5; stroke-linejoin: miter"/>
    </g>
    <g id="text_29">
     <text style="font-size: 10px; font-family: 'DejaVu Sans', 'Bitstream Vera Sans', 'Computer Modern Sans Serif', 'Lucida Grande', 'Verdana', 'Geneva', 'Lucid', 'Arial', 'Helvetica', 'Avant Garde', sans-serif; text-anchor: start" x="673.124125" y="114.261875" transform="rotate(-0 673.124125 114.261875)">15</text>
    </g>
   </g>
  </g>
 </g>
 <defs>
  <clipPath id="p98f691d7c9">
   <rect x="40.603125" y="59.937562" width="69.019" height="65.404"/>
  </clipPath>
  <clipPath id="p431858609c">
   <rect x="189.483375" y="59.937562" width="69.019" height="65.404"/>
  </clipPath>
  <clipPath id="pd1ca8eb57e">
   <rect x="338.363625" y="59.937562" width="69.019" height="65.404"/>
  </clipPath>
  <clipPath id="p42cfae763e">
   <rect x="487.243875" y="59.937562" width="69.019" height="65.404"/>
  </clipPath>
  <clipPath id="p9e170ca155">
   <rect x="636.124125" y="59.937562" width="69.019" height="65.404"/>
  </clipPath>
 </defs>
</svg>
